<?xml version="1.0" encoding="utf-8"?>
<!-- Generator: Adobe Illustrator 23.0.2, SVG Export Plug-In . SVG Version: 6.00 Build 0)  -->
<svg version="1.1" id="Layer_1" xmlns="http://www.w3.org/2000/svg" xmlns:xlink="http://www.w3.org/1999/xlink" x="0px" y="0px"
	 viewBox="0 0 1984.25 2040.94" style="enable-background:new 0 0 1984.25 2040.94;" xml:space="preserve">
<style type="text/css">
	.st0{fill:#4D9A42;}
	.st1{fill:#020202;}
	.st2{fill:#F4D041;}
	.st3{fill:#1D1D1B;}
</style>
<g>
	<path class="st0" d="M219.07,1160.74c0-61.29-0.01-122.59,0-183.88c0-12.04,0.04-12.06,12.42-12.05
		c48.76,0.04,97.52-0.09,146.27,0.31c7.92,0.07,9.77-2.31,9.19-9.9c-4.78-62.5,1.38-124.05,17.15-184.64
		c17.29-66.44,46.08-127.59,85.1-184.02c27.22-39.37,59.06-74.75,94.84-106.3c51.68-45.57,109.64-81.42,173.8-107
		c81.4-32.46,165.97-46.9,253.39-43.14c85.96,3.7,167.85,24.34,244.96,62.96c78.6,39.37,145.59,93.22,200.58,161.79
		c45.23,56.39,78.96,119.03,100.82,188.04c21.95,69.33,30.32,140.26,25.16,212.73c-0.57,7.96,2.1,9.28,9.06,9.25
		c49.31-0.22,98.63-0.14,147.95-0.13c11,0,11.04,0.03,11.04,11.02c0.02,122.59,0.03,245.18,0.04,367.78
		c0,12.42-0.03,12.42-12.21,12.42c-114.51-0.01-229.02,0.05-343.54-0.19c-8.56-0.02-15.19,2.12-21.86,7.7
		c-82.09,68.76-176.18,112.35-281.46,130.93c-105.24,18.57-208.6,10.13-309.65-25.27c-53.18-18.63-102.73-44.24-148.75-76.6
		c-13.86-9.75-26.86-20.74-39.94-31.54c-4.38-3.61-8.73-5.17-14.37-5.17c-114.23,0.14-228.47,0.18-342.7,0.12
		c-20.41-0.01-17.24,2.23-17.27-17.18C219.01,1279.43,219.07,1220.09,219.07,1160.74z M1740.55,1161.14c0.02,0,0.03,0,0.05,0
		c0-58.51-0.15-117.01,0.17-175.52c0.04-8.33-2.26-10.88-10.8-10.81c-49.59,0.41-99.18,0.06-148.77,0.41
		c-7.82,0.05-10.09-2.17-9.4-9.89c3.43-38.11,2.78-76.18-1.59-114.23c-7.59-65.98-26.5-128.56-56.16-187.86
		c-29.65-59.3-68.64-111.84-116.43-157.79c-50.06-48.13-106.86-86.41-170.35-114.48c-65.84-29.11-134.73-45.79-206.73-49.98
		c-86.4-5.03-169.99,7.72-250.66,38.73c-81.78,31.43-152.92,78.98-213.86,142.1c-61.83,64.04-106.58,138.41-133.74,222.82
		c-22.9,71.17-31.28,144.51-24.48,219.27c0.98,10.78,0.91,10.82-9.73,10.85c-49.31,0.11-98.62,0.21-147.94,0.3
		c-10.86,0.02-10.87,0.01-10.88,11.16c-0.11,115.62-1.02,231.23,0.09,346.85c0.12,12.62,0.05,12.64,12.84,12.64
		c113.39,0.01,226.78,0.03,340.18-0.05c5.5,0,10.18,0.8,14.5,4.76c23.47,21.53,49.48,39.77,76.64,56.19
		c54.22,32.78,112.32,56.47,174.02,71c63.14,14.86,127.16,19.64,191.7,13.45c69.5-6.67,136.07-24.28,199.54-54.14
		c48.21-22.69,92.67-50.67,132.89-85.48c4.72-4.09,9.54-5.76,15.84-5.75c114.51,0.14,229.01,0,343.52,0.2
		c7.88,0.01,9.74-2.54,9.7-10.05C1740.42,1277.59,1740.55,1219.36,1740.55,1161.14z"/>
	<path class="st1" d="M1740.55,1161.14c0,58.23-0.13,116.45,0.16,174.68c0.04,7.51-1.82,10.07-9.7,10.05
		c-114.51-0.21-229.01-0.06-343.52-0.2c-6.29-0.01-11.12,1.67-15.84,5.75c-40.22,34.81-84.68,62.8-132.89,85.48
		c-63.47,29.86-130.04,47.47-199.54,54.14c-64.55,6.19-128.56,1.42-191.7-13.45c-61.7-14.52-119.8-38.22-174.02-71
		c-27.16-16.42-53.16-34.66-76.64-56.19c-4.32-3.96-9-4.76-14.5-4.76c-113.39,0.08-226.78,0.06-340.18,0.05
		c-12.79,0-12.72-0.02-12.84-12.64c-1.11-115.62-0.2-231.23-0.09-346.85c0.01-11.15,0.02-11.14,10.88-11.16
		c49.31-0.09,98.62-0.19,147.94-0.3c10.64-0.02,10.71-0.06,9.73-10.85c-6.8-74.76,1.58-148.1,24.48-219.27
		c27.16-84.41,71.91-158.78,133.74-222.82c60.94-63.12,132.09-110.67,213.86-142.1c80.68-31.01,164.27-43.77,250.66-38.73
		c71.99,4.19,140.89,20.87,206.73,49.98c63.49,28.07,120.29,66.35,170.35,114.48c47.79,45.95,86.77,98.49,116.43,157.79
		c29.66,59.31,48.57,121.88,56.16,187.86c4.38,38.05,5.02,76.12,1.59,114.23c-0.69,7.72,1.58,9.95,9.4,9.89
		c49.59-0.35,99.18,0.01,148.77-0.41c8.54-0.07,10.84,2.48,10.8,10.81c-0.31,58.51-0.17,117.01-0.17,175.52
		C1740.58,1161.14,1740.57,1161.14,1740.55,1161.14z M1049.32,1236.46c0.05,2.7-2.84,7.67,1.51,7.5
		c10.02-0.38,20.65,3.56,30.43-2.43c-7.19-11.21-17.75-9.34-30.72-6.05c-0.42-1.32-0.85-2.64-1.27-3.96
		c-1.37-4.31,0.99-7.8,3.27-10.72c2.64-3.4,5.63,0.15,8.17,1.15c7.62,3.03,15.07,6.49,22.92,9.93c0.91-11.2,5.82-21.64,2.28-34.02
		c-3.05,2.88-4.37,10.38-8.5,2.75c-0.36-0.66-3.15-0.05-4.81,0.05c-5,0.29-10.01,0.52-15,0.96c-5.17,0.46-8.28-1.47-9.76-6.69
		c-2.05-7.2-5.09-14.14-6.84-21.41c-1.3-5.42,0.12-10.84,5.87-13.33c8.38-3.62,16.84-7.52,26.33-6.69c3.13,0.28,4.18-0.39,5.04-3.6
		c1.14-4.28-3.73-12.69,6.83-11.51c0.09,0.01,0.36-0.99,0.44-1.53c1.35-8.51,5.69-16.79,2.43-25.76c-4.94,0.43-4.24,6.58-8.85,7.61
		c-0.12-1.52-0.5-2.88-0.28-4.12c1.38-7.58-2.27-10.26-9.35-10.52c-27.01-0.98-50.88,4.34-64.55,31.03
		c-0.89,1.73-1.9,3.42-3.06,4.98c-6.92,9.3-7.24,19.93-6.94,30.76c3.74,0.63,7.41-3.67,9.79,0.03c2.05,3.18-1.98,5.36-3.68,7.57
		c-5.15,6.68-6.3,13.48-4.26,21.86c1.86,7.64,5.79,14.22,8.82,21.16c4.42,10.12,14.12,15.71,23.42,20.92
		c3.25,1.82,7.47,2.12,11.31,2.6c3.51,0.43,4.36-2.85,5.74-5.19c0.62-1.05,0.62-2.27-0.34-3.01c-2.62-2.01-4.04,0.68-5.59,1.84
		c-2.09,1.56-3.27,1.34-4.39-0.94c-1.22-2.49-3.75-6.61-2.17-7.46c3.73-2,7.31-6.1,12.49-4.01l0.08-0.36
		C1044.06,1230.33,1046.16,1233.55,1049.32,1236.46z M833.7,1241.56c4.75,2.42,9.93,1.08,14.88,1.74
		c21.97,2.24,44.31,5.88,58.85-17.38c1.55-2.47,4.62-3.96,6.88-6.02c4.95-4.52,6.87-9.91,4.8-16.55
		c-1.57-5.04-2.73-10.12-2.69-15.54c0.09-11.3-12.07-26.42-23.01-27.8c-3.51-0.44-6.38-1.41-8.84-3.31
		c-3.47-2.68-6.75-3.39-10.81-1.63c-3.13,1.35-6.31,1.61-6.23-3.24c0.06-3.99-3.17-10.07,3.74-10.81
		c10.64-1.13,21.68-2.53,30.24,6.84c3.85,4.21,9.18,4.48,12.05-0.27c6.38-10.58,5.84-22.74,5.7-34.62
		c-0.03-2.44-1.99-3.17-4.01-3.47c-19.69-2.86-38.57-10.37-59.34-0.18c-10.86,5.33-17,10.69-22.73,21.34
		c-7.85,14.6-6.71,25.53,0.48,39.84c5.37,10.69,11.83,17.51,22.02,22.02c5.84,2.59,11.79,5.03,16.71,9.21c2.04,1.73,5,3.6,4.16,6.73
		c-1.01,3.75-4.57,2.09-7.13,2.23c-3.33,0.18-6.88,0.86-9.98,0.02c-7.61-2.05-17.86,1.39-21.32-10.09
		c-0.76-2.52-1.72-8.02-6.31-5.44c-3.47,1.95-5.56,6.15-3.45,10.81c0.43,0.94,3.07,1.18,1.08,2.89c-8.58,7.39-4.6,17.87-6.61,26.87
		c-0.4,1.78,1.29,2.91,2.91,3.61c0.87,0.32,1.75,0.65,2.62,0.97C830.15,1240.75,831.92,1241.15,833.7,1241.56z M729,1241.24
		c4.03,3.81,9.05,0.39,13.4,1.83c23.4,2.89,46.93,6.21,62.45-18.12c0.43-0.67,1.19-1.17,1.87-1.65c8.6-6.01,11.86-13.88,7.65-23.84
		c-2.98-7.04,0-14.78-3.83-21.91c-7.62-14.19-21.96-17.65-34.95-23.34c-1.44-0.63-3.68,0.64-5.57,0.93
		c-2.53,0.4-6.13,2.29-5.95-2.58c0.15-4.09-4.08-10.65,3.54-11.55c10.57-1.25,21.54-2.62,30.16,6.66c3.57,3.84,8.78,5.2,11.98,0.01
		c6.55-10.58,6.15-22.68,5.72-34.6c-0.1-2.91-2.4-3.5-4.64-3.86c-19.69-3.16-38.67-9.94-59.25,0.31
		c-10.54,5.25-16.25,10.78-21.96,20.97c-8.38,14.96-6.8,26.19,0.72,40.56c5.03,9.61,10.56,16.41,19.98,20.66
		c6.33,2.85,12.77,5.55,18.34,9.76c2.19,1.66,4.72,3.95,4.06,6.81c-0.85,3.65-4.51,2.24-7.09,2.39c-3.33,0.19-6.76,0.63-9.98,0.06
		c-8.73-1.54-19.37,0.1-22.1-12.46c-0.41-1.89-1.75-4.68-4.58-3.85c-2.9,0.85-4.87,3.96-4.53,6.38c0.69,4.79-0.59,8.36-2.39,12.8
		c-2.52,6.21-2.09,13.62-2.91,20.52c-0.28,2.39-0.03,4.5,2.84,5.16c0.92,0.33,1.85,0.65,2.77,0.98
		C726.19,1240.61,727.62,1240.93,729,1241.24z M1382.56,1215.04c-0.42-0.36-0.86-0.69-1.31-1.01c11.69-29.14,9.37-58.81,3.53-88.66
		c-0.62-3.18-1.38-6.44-4.04-7.88c-11.79-6.34-22.42-14.46-36.95-15.68c-13.42-1.13-24.75,7.99-37.98,5.36
		c-1.06-0.21-2.6,0.93-3.62,1.78c-17.45,14.61-17.73,15.86-12.2,37.78c1.43,5.66,2.61,8.23,9.12,4.43
		c10.69-6.25,23.07-6.86,35.35-9.13c-3.57,15.79-5.67,17.84-19.69,20c-4.12,0.64-8.25,1.28-12.36,1.97
		c-7.5,1.25-25.95,22.32-26.16,29.92c-0.04,1.36,0.29,2.73,0.41,4.1c1.77,20.27,6.88,38.15,30.53,42.83
		c0.79,0.16,1.48,0.75,2.22,1.14c4.8,2.51,9.11,2.91,13.78-1.01c5.3-4.46,11.57-7.77,16.93-12.18c4.5-3.7,7.79-3.71,12,0.44
		c4.13,4.08,9.21,7.18,13.56,11.05c5.65,5.02,10.33,4.19,14.91-1.42c2.27-2.78,4.53-6.07,7.57-7.61c9.16-4.62,9.24-13.1,10.18-21.35
		c0.24-2.06-0.29-3.93-2.42-4.83c-2.2-0.93-3.6,0.32-5.04,1.82C1388.18,1209.69,1385.34,1212.34,1382.56,1215.04z M387.38,1121.26
		c-1.27,0.7-1.36,1.92-1.4,3.16c-1.7-4.68-3.46-9.33-5.09-14.03c-1.23-3.54-4.07-3.05-6.86-3.07c-3.72-0.03-3.07,2.95-2.96,4.75
		c0.98,15.45-2.63,31.22,3.15,46.35c1.16,3.05-0.51,5.96-0.68,8.87c-0.52,9.27-9.81,20.01,3.77,27.4c0.23,0.13-0.13,1.35-0.22,2.06
		c-0.97,7.46,0.5,15-0.98,22.48c-1.38,6.97,2.07,11.19,8.68,12.95c5.12,1.37,10.44,2.49,14.77,5.51c8.63,6.02,16.21,3.58,23.47-2.19
		c5.66-4.5,11.05-9.33,16.6-13.97c1.69-1.41,4.03-3.56,5.26-0.2c2.35,6.44,8.73,9.21,12.27,14.53c2.23,3.35,4.7,7.29,9.8,6.55
		c5.41-0.78,0.99-6.6,4.6-8.85c0.56,0.9,1.21,1.72,1.61,2.65c0.74,1.71-1.38,5.43,2.43,4.81c3.3-0.53,2.41-3.66,1.89-6.19
		c-0.51-2.43-1.5-5.14,2.11-7.4c0.26,2.36,0.32,3.98,0.62,5.55c0.42,2.21-1.49,5.56,2.1,6.27c2.57,0.51,4.28-1.57,6.09-3.55
		c7.41-8.1,6.99-18.36,8.26-28.14c0.37-2.85-1.61-4.47-4.3-5.35c-5.33-1.75-6.84-5.63-6.63-11.04c0.61-16.12,0.8-32.26,1.29-48.39
		c0.11-3.61,1.23-6.85-4.3-8c-3.75-0.78-3.21-6.9-1.46-7.31c10.58-2.5,5.97-10.95,7.3-16.91c1.27-5.68-1.7-7.11-7.04-6.5
		c-11.88,1.35-23.79,2.46-35.72,3.28c-4.35,0.3-5.69,2.02-5.58,6.19c0.23,8.9,0.13,17.82,0.04,26.73c-0.03,3.64,0.45,6.25,5.06,4.28
		c1.54-0.66,3.16-1.1,5.1,0.3c-1.01,3.48-3.23,6.27-6.08,8.5c-3.21,2.51-4.81,6.47-3.63,9.48c1.71,4.33,0.43,7.75-0.22,11.75
		c-1.89,11.67-2.86,12.67-14.54,12.79c-4.02,0.04-6.11-0.97-6.38-5.45c-0.41-6.9-1.43-13.77-2.22-20.94
		c-4.97,3.65-8.75-1.36-13.22-1.57c-2.61-0.13-6.87-0.26-7.03-3.12c-0.22-3.85,4.29-2.12,6.62-3c3.36-1.27,6.94-1.95,10.43-2.87
		c3.46-0.91,4.86-3.07,4.81-6.71c-0.18-11.69-0.21-23.39-0.12-35.08c0.03-3.6-1.23-4.99-4.91-4.62c-9.13,0.93-18.29,1.62-27.43,2.46
		c-1.31,0.12-2.91,0.02-3.5,1.64c-0.71,1.95,0.52,3.11,1.92,4.12c3.25,2.35,6.51,4.68,9.93,7.14
		C392.18,1122.13,389.22,1118.69,387.38,1121.26z M1267.74,1158.91c0.46-4.43,0.82-8.87,1.4-13.28c0.85-6.44-1.33-8.86-8.32-9.92
		c-11.93-1.8-23.79-1.71-35.7-1.58c-5.16,0.06-6.85-1.71-6.55-6.75c0.36-6.1,0.45-12.27-0.02-18.36c-0.43-5.63,1.8-7,7.09-7.02
		c15.11-0.04,30.3,1.56,45.13-3.71c5.13-1.82,8.32-3.76,8.75-9.34c0.59-7.75,1.58-15.47,1.99-23.23c0.28-5.3-1.41-8.46-8.07-8.4
		c-31.44,0.26-62.89-0.03-94.34-0.09c-3.18-0.01-6.26,0.41-6.72,4.54c-1.38,12.39-5.23,24.32-5.13,37.06
		c0.14,17.89,0.88,35.53,6.18,52.78c1.29,4.21,1.72,8.72,2.16,13.13c0.22,2.16,0.68,3.96-3.32,4.92c-5.78,1.39-1.9,7.44-2.66,11.36
		c-0.57,2.95,1.11,4.63,4.35,4.55c3.7-0.08,7.36-0.18,6.8,5.46c-0.39,3.95,1.22,8.75-5.81,7.89c-2.23-0.27-3.27,1.91-3.57,3.95
		c-1.55,10.73-3.01,21.46-4.52,32.2c-0.77,5.45,1.71,6.83,7.01,7.5c10.82,1.37,19.77-2.69,27.92-8.34c2.95,2.68,0.04,7.15,3.36,7.83
		c3.99,0.82,8.81,1.37,12.29-0.17c4.07-1.81,0.3-5.73-0.1-8.78c-0.36-2.73-0.14-5.54-0.08-8.31c0.32-14.46,0.67-28.93-0.38-43.38
		c2.76-2.57,6.23-2.02,9.51-2.04c11.68-0.08,23.37,0.03,35.05-0.14c2.56-0.04,7.09,1.28,4.92-4.41c0.21-1.61,0.42-3.23,0.63-4.84
		C1268.25,1166.35,1268.12,1162.64,1267.74,1158.91z M820.33,1350.62c-4.96-1.14-9.91-1.08-14.86,0.04c-8.33,0-16.67,0-25,0
		c-25.23-1.65-50.48-0.6-75.72-0.65c-14.4-0.03-28.84-1.04-43.22,0.66c-3.27,0-6.54,0-9.82,0c-14.53-1.13-29.05-1.38-43.58,0.09
		c-1.37,0.03-2.74,0.05-4.12,0.08c-1.4-0.68-1.49,0.14-1.36,1.2c3.87,3.53,8.37,6.37,12.23,9.79
		c22.62,20.05,48.28,35.56,74.23,50.68c8.29,4.83,9.28,4.13,10.35-5.74c0.28-2.59-0.46-7.61,2.14-7.21
		c6.73,1.06,7.75-4.25,10.68-7.47c2.93-3.21,4.93-3.61,5.84,1.36c0.98,5.41,3.79,4.19,6.77,1.77c5.03-4.08,9.26-9.27,16.74-12.28
		c-1.93,5.74-3.57,10.35-5.02,15.01c-0.69,2.22-3.41,4.62-1.1,6.77c2.1,1.95,4.71-0.44,6.99-1.06c3.18-0.86,8.17-3.88,9.23-2.02
		c4.36,7.73,11.27,3.13,16.73,4.79c5.28,1.61,11.51,2.48,13.25,9.08c0.56,2.14-0.05,5.11,2.99,4.75c2.31-0.28,2.31-3.32,2.97-5.37
		c1.62-5.03-2.95-8.1-3.84-12.35c-0.54-2.57,2.98-7.02-1.74-7.42c-4.32-0.37-3.57,4.74-4.62,7.66c-0.43,1.2-1.1,1.83-2.93,1.82
		c-2.4-6.01-3.27-11.89,1.31-17.66c1.01-1.27,3.95-3.02,1.31-4.56c-2.22-1.3-4.8-1.18-3.07-4.83c1.43-3.03,3.82-4,6.79-3.66
		c4.13,0.48,6.81-0.86,8.61-4.78c1.51-3.28,4.07-5.87,8.39-7.22c-0.78,8.93,2.88,6.34,7.27,3.32c2.55-1.75,8.02-4.83,8.39-2.85
		c1.43,7.68,7.94,3.1,11.34,6.05c-1.1,1.85-6.15,2.35-4,4.64c2.37,2.53,4.29,7.29,8.56,6.7c5.05-0.7,7.94,0.24,10.78,4.89
		c1.43,2.34,5.28,7,9.38,3.93c7.22-5.43,17.16-4.84,23.75-11.37c0.43-0.42,1.49-0.2,3.23-0.38c-2.01,4.23-1.76,5.7,3.46,6.25
		c5.26,0.55,15.57-5.23,14.77,7.78c-0.01,0.17,0.35,0.51,0.57,0.54c8.41,1.26,3.27,4.64,0.15,7.77c6.68,0.61,12.46,0.29,16.43,6.22
		c1.87,2.8,6.87,1.32,7.44-1.77c0.95-5.15,2.92-11.32-0.99-15.78c-3.41-3.88-3.61-7.86-3.45-12.28c0.06-1.49-0.89-3.64,1.22-4.3
		c1.93-0.6,2.77,1.17,3.74,2.57c3.48,5,7.11,9.9,10.64,14.87c1.33,1.88,3.6,4.58,4.47,0.8c1.93-8.32,11.03-10.62,13.81-18.03
		c0.43-1.15,2.79-4.19,4.24-1.16c2.39,4.99,10.01,7.74,5.48,15.89c8.65-2.65,11.71-11.75,20.69-12.61
		c-2.16,7.55-4.97,13.82-8.91,19.56c-2.89,4.21-2.45,5.98,3.16,5.14c2.63-0.39,7-1.75,5.19,4.04c-0.51,1.65-3.04,3.52-0.19,4.8
		c1.53,0.69,3.8,0.06,5.65-0.37c3.34-0.79,3.75-5.43,7.98-6.18c-0.46,5.64,1.22,6.15,6.01,3.47c6.25-3.51,13.2-5.78,19.85-8.57
		c1.26-0.53,2.7-1.38,3.81-0.1c1.06,1.23,0.31,2.64-0.54,3.76c-1.47,1.93-2.96,4.79,0.8,4.53c7.09-0.49,5.44,4.22,5.18,7.79
		c1.84,0.49,2.99,0.18,3.52-0.87c2.05-4.1,9.26-5.22,6.87-11.87c9.93,0.03,6.04-9.42,9.53-13.68c3.93-4.79,4.26-16.79,15.75-9.24
		c0.68,0.45,2.47-0.95,3.8-1.31c3.19-0.85,6.4-1.58,9.61-2.37c0.63,0.54,1.26,1.08,1.89,1.62c-1.03,2.27,0.04,2.85,2.16,2.96
		c4.43,0.24,8.86,0.58,13.28,1.01c4.34,0.43,4.81,2.24,1.57,5.06c-1.17,1.02-3.2,1.39-2.46,4.1c3.72,1.17,7.71,2.23,11.55,3.7
		c2.72,1.04,7.42,1.15,7.28,4.37c-0.21,4.7-5.35,2.13-8.1,3.39c-0.38,0.17-0.55,0.79-1.06,1.58c2.26,1.01,4.53,1.87,6.65,2.99
		c9.07,4.8,8.95,5.34,1.26,11.13c-2.43,1.83-4.66,2.7-7.46,2.88c-4.85,0.31-5.07,3.08-2.59,6.08c3.74,4.51,8.29,8.44,13.58,10.85
		c5.45,2.48,9.82-2.35,14.68-3.84c1.36-0.42,1.43-2.55,0.32-3.59c-2.81-2.62-5.75-0.14-8.65,0.08c-0.4,0.03-0.84-0.5-2.46-1.53
		c9.67-5.43,4.58-12.71,3.2-19.92c-1.78-9.27,1.85-17.88,6.86-17.59c9.27,0.54,3.29-14.84,13.74-12.96c1.32,0.24,3.07-0.68,4.07-0.1
		c7.19,4.14,14.24,8.52,22.45,13.5c-6.6,2.77-12.59,1.28-16.43,7.14c9.37,2,19.4-0.95,27.19,6.63c-5.6,2.85-11.22,2.63-17.78,4.32
		c6.2,3.26,11.46,4.58,16.81,5.63c2.45,0.48,4.11,1.7,4.35,4.31c0.24,2.64-0.18,5.04-3.01,6.22c-4.56,1.91-11.45,3.14-2.15,8.65
		c1.66,0.99-0.3,2.2-0.86,3.32c-2.65,5.39,1.09,5.82,4.71,5.33c3.78-0.51,5.41-3.5,5.95-7.1c0.62-4.13,1.36-8.23,3.38-11.98
		c0.77-1.44,2.04-4.03,3.24-2.57c3.41,4.13,12.74,3.71,10.07,12.68c-0.36,1.21,0.03,2.76,1.96,3.31c2.11-0.92,1.7-3.08,2.16-4.87
		c1.38-5.48,3.7-10.47,8.21-14.12c2.8-2.26,5.07-2.83,5.16,2.03c0.04,2.21-0.17,4.86,2.66,5.39c2.47,0.47,4.02-1.6,5.38-3.35
		c4.88-6.27,10.07-6.31,16.63-2.12c8.81,5.64,17.71,7.82,27.39,0.24c7.12-5.57,15.63-9.38,23.5-13.99
		c20.52-12.03,39.4-26.35,57.61-41.57c3.8-3.18,10.08-3.61,11.37-10.14c-2.32-0.24-4.48-0.47-6.64-0.69
		c-2.47-0.23-4.94-0.65-7.41-0.65c-83.78-0.04-167.55-0.05-251.33-0.03c-2.46,0-4.93,0.47-7.39,0.72
		c-9.4,0.01-18.81,0.01-28.21,0.02c-17.15-1.68-34.34-0.62-51.5-0.64c-18-0.01-36.02-0.95-54,0.66c-8.86-0.01-17.72-0.03-26.58-0.04
		c-8.98-1.2-17.95-1.1-26.93,0.03c-8.27-0.02-16.55-0.03-24.82-0.05c-16.25-1.29-32.51-1.13-48.76,0.05
		C828.11,1350.65,824.22,1350.63,820.33,1350.62z M1105.34,720.9l-0.18-0.18c5.55,9.79,7.1,20.87,10.25,31.44
		c4.45,14.97,12.09,28.05,23.77,38.54c12.64,11.36,24.63,23.36,36.5,35.52c8.14,8.33,15.95,16.96,26.27,23.04
		c16.6,9.79,33.85,18.06,51.85,24.81c4.75,1.78,9.14,3.88,12.72,7.64c8.08,8.49,6.47,14.96-4.25,19.62
		c-10,4.35-20.84,2.15-30.91,4.9c-16.13,4.41-31.16,0.02-46.31-4.66c-8.68-2.68-16.36-6.92-23.04-13.02
		c-9.05-8.24-17.97-16.61-27.15-24.7c-17.66-15.57-33.16-33.68-55.22-43.96c-28.51-13.29-55.95-28.63-82.57-45.49
		c-19.51-12.36-34.65-27.61-40.51-50.81c-1.72-6.79-4.13-13.65-8.9-20.76c-6.5,13.56-5.46,28.86-16.05,39.86
		c0-12.36,0-24.72,0-38.47c-2.6,4.16-1.98,8.11-5.98,11.28c-0.48-6.66-0.87-12.07-1.26-17.48c-6.02,20.69-8.11,42.32-16.92,62.25
		c-1-10.69-0.96-21.22-1.03-31.75c-0.02-2.69,0.39-6.26-3.02-6.82c-3.07-0.51-3.53,2.95-4.47,5.18
		c-7.41,17.56-14.73,35.15-22.23,52.67c-1.99,4.65-3.38,9.72-8.52,15.38c1.04-15.07,6.04-27.24,6.54-40.66
		c-1.03,0.9-1.54,1.16-1.78,1.57c-0.55,0.94-0.83,2.05-1.46,2.91c-9.36,12.86-6.54,31.11-21.22,42.45
		c-8.81,6.81-14.3,18.51-18.98,29.55c-2.39,5.63-4.12,11.8-8.51,17.2c-2.06-4.41-0.63-7.96,0.38-11.21
		c4.85-15.64,10.5-31.04,19.64-44.74c9.8-14.68,6.42-25.24-2.75-40.18c-0.97-1.59-2.38-3.62-4.56-3.07
		c-2.46,0.62-1.78,3.08-1.81,4.95c-0.17,10.68-2.52,20.98-5.55,31.14c-5.72,19.18-14.55,36.98-24.56,54.45
		c-0.12-8.37,0.11-16.63,1.77-24.59c3.62-17.32,1.98-34.34-1.42-51.39c-0.4-2.01-0.77-4.1-3.42-3.73c-1.94,0.28-2.48,2-2.58,3.78
		c-0.34,6.12-0.69,12.24-1.01,18.36c-0.3,5.73-3.15,8.94-8.79,10.61c-18.06,5.35-24.41,25.53-12.78,40.35
		c3.2,4.07,5.7,8.26,7.18,14.22c-2.97-0.89-4.87-1.26-6.58-2.02c-8.93-3.94-10.83-2.99-11.45,6.38c-0.72,10.9,0.8,21.69,2.11,32.47
		c0.24,1.97,0.74,4.06,2.68,4.94c5.2,2.36,8.96,6.53,13.28,10.01c4.31,3.47,7.41,3.15,9.27-2.61c1.98-6.16,4.74-11.96,10.25-15.82
		c3.49-2.44,7.55-3.68,10.18,0.72c7.42,12.41,19.72,9.03,30.33,8.94c14.32-0.12,25.35-10.54,38.46-14.96
		c11.14-3.76,18.4-10.99,15.92-24.34c-0.49-2.61,0.59-5.5,0.87-8.28c0.33-3.32,1.31-7.02-0.89-9.75
		c-6.67-8.27-3.07-16.04,1.49-23.03c12.72-19.49,48.85-24.31,66.6-9.23c1.56,1.32,3.86,2.51,3.47,6.32
		c-15.81-4.4-30.49-1.73-44.46,6.75c-3.96,2.4-3.49,5.22-3.52,8.35c-0.02,2.34-1.19,5.58,1.72,6.76c3.06,1.24,4.95-1.73,7.08-3.4
		c17.28-13.48,51.4-8.23,63.82,9.85c0.43,0.63,0.51,1.51,0.87,2.67c-7.29-0.28-13.79-2.94-20.55-4.27
		c-7.04-1.39-13.76-2.72-21.19,0.31c-13.79,5.61-18.33,20.81-30.58,27.79c-1.61,0.92-1.1,3.56-0.92,5.54
		c0.32,3.6,0.76,7.22,0.75,10.83c-0.01,13.32-8.39,24.51-20.64,26.71c-18.05,3.24-36.17,6.16-54.33,8.78
		c-13.19,1.9-19.71,10.1-17.75,23.19c0.36,2.41,1.31,3.77,3.7,3.21c12.12-2.82,24.48-0.08,36.64-1.75
		c9.02-1.24,16.49-4.58,20.4-13.68c2.1-4.89,6.49-8.67,11.57-8.57c15.58,0.29,25.33-9.97,36.19-18.44
		c3.64-2.84,6.93-5.46,4.64-11.04c-1.46-3.56,0.62-6.4,3.84-8.31c4.63-2.76,9.59-4.42,15.01-4.62c22.02-0.8,40.66,7.72,57.5,21.02
		c2.15,1.7,5.13,3.46,3.49,7.68c-4.45-2.5-8.51-4.85-12.63-7.08c-4.22-2.29-8.85-3.22-13.53-4.1c-7.91-1.49-15.63-0.43-23.08,2
		c-5.68,1.85-2.14,9.47-6.81,12.51c-1.14,0.74-1.96,2.92-0.78,4.53c1.21,1.66,2.99,0.79,4.61,0.58c4.56-0.6,8.33-2.99,12.19-5.22
		c7.26-4.18,14.8-5.2,22.11-0.49c10.75,6.93,18.86,16.41,24.43,27.87c3.11,6.41,3.7,13.38,2.14,20.42c-0.29,1.28-0.13,2.9-1.9,3.29
		c-2.24,0.5-2.7-1.22-3.45-2.74c-2.31-4.75-4.29-9.74-7.2-14.1c-4.24-6.37-8.05-13.9-16.86-14.79c-11.27-1.14-22.26-0.03-31.65,7.36
		c-9.98,7.86-20.54,10.91-32.5,4.39c-1.7-0.93-4.32-2.76-5.48,0.71c-2.53,7.54-9.65,8.75-15.58,11.35
		c-12.78,5.6-27.35,6.34-39.3,14.25c-1.92,1.27-5.18,1.83-4.51,5.12c0.8,3.87,4.09,1.9,6.19,1.91c48.76,0.15,97.51,0.22,146.27,0.22
		c174.69,0,349.39-0.04,524.08-0.02c2.98,0,5.88,0.07,8.95,1.06c7.55,2.43,12.05-1.37,12.46-9.59c1.82-36.2,1.76-72.31-2.89-108.39
		C1551,728.56,1500.03,620.16,1415,528.38c-66.5-71.78-147.73-121.95-240.29-153.24c-84.77-28.65-171.59-39.4-260.87-27.55
		c-99.82,13.25-191.15,47.81-273.47,106.02c-102.29,72.34-171.75,168.93-212.63,286.81c-2.66,7.67,0.19,7.88,6.2,7.11
		c14.21-1.81,17.68-0.05,24.57,12.66c2.1,3.88,3.48,8.18,5.02,12.34c0.93,2.51,2.12,4.5,5.08,4.82
		c11.35,1.23,21.37-10.07,19.08-21.54c-2.64-13.21,1.9-21.51,14.51-26.15c4.72-1.74,9.65-2.57,14.73-2.65
		c13.17-0.21,14.01,0.43,16.57,13.02c0.53,2.6-0.29,6.31,3,7.19c3.54,0.94,5.2-2.68,7.2-4.81c2.61-2.79,2.84-6.51,3.12-10.16
		c0.29-3.87,1.08-7.71,1.22-11.58c0.25-7.06,4.88-10.45,10.64-12.23c6.1-1.88,10.84,1.5,14.49,6.01c3.13,3.87,5.51,8.34,8.57,12.28
		c2.15,2.77,5.28,4.23,8.86,3.02c3.4-1.15,2.99-4.42,3.08-7.09c0.23-6.68-0.17-13.4,0.39-20.05c0.63-7.48,5.18-9.48,11.39-5.19
		c9.13,6.31,19.19,11.27,27.29,19.08c4.43,4.27,7.36,4.32,9.79-2.54c3.25-9.19,3-18.61,3.97-27.98c0.29-2.76,0.88-5.79,3.75-7.05
		c3.31-1.45,4.99,1.6,6.94,3.37c7.25,6.55,14.14,13.46,18.97,22.06c3.44,6.13,6.87,5.4,10.76,0.48c3.01-3.81,4.84-8.06,5.7-12.82
		c0.79-4.38,1.63-8.75,2.66-13.08c0.69-2.9,0.91-6.87,4.39-7.33c3.4-0.45,4.85,3.29,6.48,5.77c3.82,5.82,7.42,11.78,11.08,17.7
		c1.26,2.05,2.86,3.62,5.41,2.83c2.32-0.72,2.11-2.97,2.3-4.89c0.51-5.08-0.83-9.96-1.5-14.92c-0.37-2.78-0.84-5.88,2.45-7.22
		c2.92-1.19,4.48,1.16,6.09,3.15c2.79,3.47,5.7,6.84,8.57,10.24c1.5,1.77,3.3,3.5,5.7,2.28c2.92-1.5,1.05-3.81,0.33-5.78
		c-2.26-6.28-4.62-12.53-6.79-18.84c-0.81-2.34-1.68-5.06,0.84-6.89c2.81-2.05,4.63,0.43,6.39,2.07c2.04,1.89,4.03,3.87,5.78,6.03
		c4.63,5.7,8.17,3.95,11.76-1.23c6.09-8.8,6.45-17.68,2.65-27.68c-1.84-4.83-6.44-11.64,0.43-15.84c6.28-3.84,10.71,2.04,15.11,5.69
		c2.36,1.96,4.62,4.76,7.94,3.19c3.46-1.63,2.23-5.35,2.23-8.25c0-3.72-1.82-6.94-3.69-10.05c-2.29-3.83-4.49-7.69-5.48-12.09
		c-0.53-2.38-1.87-5.06,0.68-6.92c2.27-1.66,4.97-0.81,7.16,0.36c4.42,2.34,8.57,5.18,12.99,7.54c2.29,1.23,4.73,4.55,7.31,2.31
		c2.4-2.09-0.18-5.33-1.01-7.67c-1.95-5.47-4.93-10.56-7.18-15.94c-1.13-2.72-3.05-6.12-0.48-8.59c2.76-2.64,5.67,0.22,8.29,1.46
		c2,0.94,3.78,2.34,5.71,3.42c1.49,0.83,3.22,1.54,4.52-0.1c0.99-1.24,0.02-2.53-0.53-3.83c-3.81-9.06-8.74-17.27-15.88-24.23
		c-3.14-3.06-5.95-7.42-3.25-12c2.83-4.79,7.75-3.52,12.06-2.25c3.71,1.1,7.25,2.78,10.89,4.15c4.41,1.67,8.74,3.65,13.28,4.86
		c6.93,1.84,10.07-1,7.74-7.76c-4.53-13.14-5.19-28.31-18.57-37.19c-2.59-1.72-3.69-5.01-2.36-8.26c1.37-3.33,4.12-5.25,7.61-5.85
		c3.98-0.69,7.79,0.42,11.38,1.96c6.64,2.85,13.14,6.03,19.78,8.89c8.83,3.8,17.99,5.79,27.66,4.19c2.24-0.37,4.45-0.82,4.98-3.61
		c0.45-2.38-0.04-4.35-2.04-5.94c-2.16-1.72-5.82-3.42-6.04-5.44c-1.31-11.86-10.78-15.28-19.25-19.82
		c-2.57-1.38-5.13-2.72-4.8-6.06c0.32-3.3,1.43-5.86,4.82-7.94c9.31-5.71,17.84-5.88,27.28,0.04c9.16,5.73,17.56,12.87,28.06,16.34
		c2.17,0.72,4.55,1.75,6.22-0.19c1.39-1.61-0.21-3.58-0.67-5.44c-3.06-12.46-6.29-24.68-17.17-33.22c-2.84-2.23-2.62-6.29-0.67-9.27
		c1.97-2.99,5.31-2.81,8.32-1.57c9.77,4.04,19.67,7.82,29.14,12.49c5.64,2.78,10.98,3.81,16.84,1.89
		c19.25-6.31,38.13-13.87,58.4-16.64c2.41-0.33,4.83-1.47,6.98-2.69c7.71-4.37,16.15-5.98,24.79-6.73
		c10.32-0.9,19.3-4.3,26.84-11.79c6.71-6.67,15.78-6.82,23.36-1.04c2.65,2.02,5.45,4.09,7.4,6.73c5.77,7.81,13.55,10.44,22.92,11.33
		c13.4,1.27,20.84,9,21.51,22.3c0.37,7.26,3.38,9.76,10.11,10.02c10.36,0.4,17.94,5.3,22.08,15.05c1.21,2.84,2.62,5.66,5.16,7.47
		c25.57,18.22,48.47,40.06,75.18,56.65c35.64,22.14,69.17,47.83,107.35,65.73c19.28,9.04,35.82,20.38,47.28,39
		c7.99,12.99,18.75,24.21,26.24,37.64c5.35,9.59,8.77,19.88,3.82,30.32c-6.44,13.57-14.35,26.47-24.35,37.75
		c-10.23,11.55-15.43,10.06-22.31-3.65c-3.75-7.48-6.54-17.99-19.23-14.82c-2.28,0.57-4.25-0.89-5.78-2.71
		c-1.14-1.36-2.35-2.29-4.16-0.78c-5.62,4.7-10.42,4.71-13.82-2.6c-8.09,3.01-15.02-6.57-19.34-5.31c-21.39,6.22-40.8,0-60.57-5.71
		c-30.87-8.91-59.39-23.68-88.93-35.89c-6.44-2.66-12.04-6.91-16.82-12.08c-4.27-4.63-9.61-6.95-15.76-5.83
		c-13.62,2.48-26.5-0.23-39.38-4.33c-7.36-2.34-15.14-2.59-21.94,1.41c-9.19,5.41-18.25,10.19-29.71,6.53
		c2.27,4.12,6.01,4.54,9.16,5.78c28.19,11.08,42.75,32.49,46.96,61.75c0.76,5.26-1.76,7.06-6.94,5.9c-3.03-0.68-4.83-2.74-6.53-4.86
		c-3.65-4.55-9.5-6.57-13.18-3.52C1099.92,711.01,1101.47,717.01,1105.34,720.9z M1563.71,1132.74
		c-6.69,13.32-0.46,22.37,5.77,30.67c4,5.34,4.24,10.59,4.83,16.59c0.77,7.72-3.8,13.85-4.59,20.72
		c-1.41,12.12-0.75,24.46-1.27,36.7c-0.19,4.51,1.62,5.78,5.81,5.72c12.81-0.17,25.63-0.22,38.43-0.04
		c4.58,0.06,6.45-1.34,6.15-6.18c-0.56-8.89-0.68-17.81-0.89-26.71c-0.42-18.07-2.03-36.11-0.04-54.22c0.76-6.91,3.9-7.24,9.45-5.95
		c4.4,1.01,7.84,6.14,12.18,4.6c8.09-2.87,10.09,3.01,11.27,7.73c2.65,10.57,1.76,21.54,1.36,32.37c-0.15,3.9-5.86,8.88,2.7,10.77
		c1.3,0.29,0.36,2.27-0.52,3.49c-3.86,5.37-3.28,11.34-2.44,17.46c0.47,3.46,3.01,6.96,0.78,10.47c-3.44,5.41,0.04,6.05,4.08,6.12
		c8.35,0.13,16.72-0.17,25.06,0.16c5.18,0.2,6.67-1.76,6.63-6.82c-0.21-31.47-0.21-62.95-0.09-94.42c0.02-4.73-1.21-9.06-4.18-12.27
		c-4.05-4.38-6.87-9.4-9.77-14.46c-3.23-5.63-14.41-11.2-20.08-9.07c-9.5,3.57-20.42,4.5-27.96,11.97
		c-7.24,7.18-12.81,7.49-19.03-0.95c-2.23-3.03-5.62-5.59-9.02-7.3c-7.73-3.89-2.96,6.01-5.8,5.95c-11.65-0.22-4.07,6.78-4.37,10.78
		c-0.1,1.35,1.66,3.18-0.56,3.96c-4.73,1.65-4.76,1.54-5.75,5.06c-2.1,7.48-4.21,14.95-6.31,22.42c-0.88-0.27-1.76-0.54-2.65-0.81
		c3.77-15.13,3.86-31.23,12.12-46.48c-3.33-5.34-8.34-5.28-14.7-0.29c-7.11,5.57-14.84,10.34-23.35,16.19c0-5.74,0-10.3,0-15.07
		c-3.05,0.56-2.24,4.31-5.45,4.22c1.33-7.64-2.83-8.08-8.87-7.32c-8,1.01-16.1,1.2-24.15,1.73c-11.03,0.74-10.72,0.73-10.56,12.15
		c0.53,36.47,1.85,72.94-0.04,109.41c-0.58,11.29,2.22,13.11,13.61,11.37c5.88-0.9,1.24-7.56,6.48-8.46
		c-0.84,9.5,5.57,8.68,11.77,8.42c4.17-0.18,8.37-0.26,12.53,0c4.51,0.29,6.58-0.98,6.32-6.01c-0.82-16.11-1.11-32.26-1.92-48.37
		c-0.74-14.49,3.9-27.6,8.87-40.76c-3.07-0.84-6.78-1.84-10.46-2.88c-1.09-0.31-2.22-0.9-1.62-2.25c0.42-0.95,1.8-2.47,2.04-2.35
		C1553.2,1144.42,1555.92,1136.29,1563.71,1132.74z M694.62,1217c3.23-10.88,7.19-19.13,8.31-28.31
		c2.41-19.82,0.94-39.38-2.82-58.86c-0.88-4.57-0.48-10.53-4.95-12.82c-11.93-6.12-22.65-14.35-37.32-15.24
		c-13.08-0.8-24.22,8.06-37.21,5.24c-1.03-0.22-2.55,0.96-3.6,1.79c-16.43,12.95-17.27,15.35-12.84,35.94
		c0.12,0.54,0.24,1.09,0.3,1.64c0.75,6.65,3.46,8.5,9.62,4.65c9.47-5.92,20.67-6.02,31.16-8.5c1.51-0.36,3.3-0.79,3.69,1.82
		c0.69,4.57-7.09,16.02-11.95,16.17c-18.15,0.54-32.28,7.25-41.91,23.43c-2.91,4.89-5.27,9.11-3.66,14.55
		c2,6.72,2.92,13.6,3.66,20.51c0.8,7.46,4.9,12.19,11.45,15.07c6.07,2.67,12.45,4.47,18.11,8.26c4.08,2.73,8.57,2.56,12.98-1.06
		c6.21-5.11,13.1-9.39,19.59-14.16c2.58-1.9,4.36-2.24,7.09,0.3c4.87,4.52,10.59,8.12,15.57,12.54c5.91,5.24,10.8,4.58,15.56-1.39
		c2.42-3.03,4.65-6.36,8.25-8.15c8.85-4.41,8.17-13.03,9.3-20.84c0.25-1.74-0.46-3.34-2.12-4.19c-1.98-1.02-3.68-0.51-5.26,1.06
		C702.52,1209.52,699.31,1212.51,694.62,1217z M306.31,1127.54c-3.51,31.89,1.44,63.79-2.9,95.92c6.31-2.81,9.96-9.32,17.83-12.07
		c-6.49,9.09-14.42,14.31-21.36,20.54c-5.55,4.98-14.83,7.75-16.58,14.47c-1.87,7.15,5.07,14.18,7.97,21.34
		c3.39,8.38,5.36,8.73,13.91,4.89c13.09-5.88,25.94-11.25,35.23-23.66c6.01-8.03,10.33-15.04,8.48-25.19
		c-1.34-7.38-1.9-14.89-2.86-22.34c-0.25-1.91-1.19-4.02,0.49-5.54c7.87-7.08,7.36-17.08,7.72-25.94
		c1.36-33.09,1.56-66.23,2.33-99.35c0.17-7.41,1.16-14.8-10.52-11.42c-2.75,0.8-6.06-0.17-9.08-0.55c-6-0.76-11-0.2-11.12,8.85
		c-4.56-10.57-13.04-9.06-21.02-8.93c-3.34,0.05-6.68,0.01-10.03,0c-14.4-0.02-14.54-0.03-14.82,14.7
		c-0.16,8.32-4.24,18.35,8.9,21.57c2.14,0.52,3.3,4.92,6.7,2.3c3.68-2.84,5.99-0.51,8.63,1.74c3.58,3.05,7.21,7.98,11.14,8.32
		c10.31,0.88,5.36,5.55,2.44,8.4c-5.11,4.99-4.85,9.8-2.22,15.72c3.85,8.69,5.86,17.77,3.07,28.71
		C312.87,1149.05,311.76,1137.56,306.31,1127.54z M946.48,1156.65c-0.73,4.39-1.23,8.65-5.64,9.56c-5.38,1.11-5.25,4.39-5.31,8.55
		c-0.3,20.55,1.28,41.17-2.02,61.6c-0.87,5.38,1.43,6.78,6.35,6.71c12.79-0.18,25.59-0.32,38.37,0.08c5.6,0.17,7.18-1.7,6.82-7.08
		c-0.55-8.31-0.99-16.7-0.45-24.99c0.51-7.86-8.18-14.32-3.07-22.74c0.17-0.29-1.8-1.88-2.78-2.86c-1.95-1.97-3.9-3.93-5.84-5.91
		c-1.81-1.85-1.23-3.59,0.52-4.95c1.83-1.43,2.81-0.3,3.76,1.41c0.96,1.72,2.44,3.27,4.7,2.56c2.65-0.84,1.49-3.28,1.54-4.98
		c0.56-19.44,0.66-38.89,1.66-58.31c0.32-6.13-1.81-8.17-7.03-7.19c-7.16,1.35-14.29,0.5-21.43,0.85c-1.88,0.09-4.9-1.36-5.32,2.18
		c-0.64,5.27-1.6,1.97-3.47,0.51c-3.62-2.82-8.2-1.54-11.86-0.37c-3.17,1.02-1.07,4.85-1.07,7.46c0,10.57-0.16,21.14,0.09,31.7
		c0.1,4.29-1.92,10.27,1.82,12.47C940.97,1165.34,940.78,1156.91,946.48,1156.65z M1269.34,588.87c0.6-8.48-4.53-14.09-9.63-19.63
		c-14.51-15.75-29.56-31.03-40.86-49.45c-1.72-2.8-3.96-5.47-6.5-7.55c-6.5-5.33-15.67-2.66-15.87,4.79
		c-0.25,9.12-0.7,18.57,3.64,27.05c6.38,12.47,6.05,23.42-5.74,32.61c-3.67,2.86-4.71,7.18-1.09,10.08
		c11.23,8.97,18.23,21.64,28.52,31.38c6.09,5.77,12.89,6.53,19.83,2.42c7.89-4.68,15.31-10.13,21.73-16.79
		C1267.42,599.56,1269.79,594.74,1269.34,588.87z M553.81,1130.02c-0.54-0.22-1.07-0.45-1.61-0.67c0-5.81-0.15-11.62,0.05-17.42
		c0.15-4.14-0.85-6.14-5.64-5.61c-11.89,1.31-23.81,2.38-35.75,3.14c-5.3,0.33-6.9,2.34-6.84,7.67c0.27,25.89,0.09,51.79,0.16,77.68
		c0.01,1.66-1.04,3.96,1.93,5.09c10.12-8.39,20.38-16.83,30.58-25.34c17.19-14.35,34.69-28.35,48.79-46.02
		c4.32-5.41,6.06-11.02,4.97-17.77c-0.36-2.24-0.98-3.7-3.47-3.63c-8.15,0.23-16.33,0.42-21.91,7.81
		C561.3,1119.96,557.57,1125,553.81,1130.02z M1456.82,1130.11c-0.63-0.16-1.27-0.32-1.9-0.48c0-6.29-0.09-12.57,0.03-18.86
		c0.07-3.55-1.23-5.04-4.94-4.66c-12.16,1.22-24.35,2.24-36.52,3.4c-3.77,0.36-6.66,1.12-6.61,6.31
		c0.22,26.15,0.06,52.29,0.06,78.44c0,1.64-0.3,3.92,1.48,4.35c1.24,0.3,3.1-0.88,4.32-1.86c5.41-4.33,10.82-8.69,16-13.29
		c20.52-18.23,43.43-33.85,60.36-56.01c3.72-4.87,4.72-9.72,4.31-15.48c-0.25-3.51-1.43-4.71-5.03-4.79
		c-9.88-0.22-18,2.65-23.54,11.34C1462.32,1122.48,1459.51,1126.25,1456.82,1130.11z M1164.14,517.15
		c-1.11-17.45-7.04-33.62-13.37-49.68c-0.97-2.46-3.01-4.07-5.51-4.75c-6.88-1.86-13.21-0.67-18.82,3.87
		c-5.51,4.46-5.98,10.13-4.46,16.6c2.02,8.57,7.19,15.61,10.75,23.43c4.02,8.82,2.63,14.05-5.61,19.07
		c-5.5,3.35-10.69,6.91-14.93,11.82c-6.69,7.74-6.3,18.43,1.11,25.88c6.79,6.83,17.3,7.2,24.63-0.17
		c9.83-9.88,17.01-21.87,24.03-33.83C1164.08,525.8,1164.14,521.38,1164.14,517.15z M1454.56,1171.27
		c-12.38,9.5-23.7,17.8-32.3,28.72c-8.39,10.66-18.29,21.03-16.05,36.74c0.59,4.15,1.43,5.8,5.81,5.71
		c12.78-0.24,25.57-0.26,38.35-0.04c4.35,0.07,5.92-1.54,5.97-5.73C1456.6,1215.39,1455.7,1194.14,1454.56,1171.27z M551.83,1171.61
		c-19.99,13.99-36.1,29.56-47.05,49.71c-3.06,5.62-1.13,12.58-0.84,18.91c0.13,2.8,2.9,2.05,4.68,2.06
		c12.81,0.08,25.63-0.05,38.44,0.12c4.5,0.06,6.55-1.46,6.59-6.19C553.79,1215.15,552.96,1194.11,551.83,1171.61z M970.56,1036.71
		c0,2.89,0.19,4.8-0.05,6.66c-0.29,2.29,1.45,5.48-1.33,6.67c-2.21,0.95-3.95-1.52-5.27-3.24c-2.14-2.8-0.16-4.38,1.93-6.09
		c3.75-3.08,2.84-4.95-1.76-5.48c-5.12-0.59-9.73-0.48-13.1,4.68c-3.33,5.1-7.6,9.52-12.71,13.02c-1.83,1.25-3.52,2.69-4.15,5.02
		c-0.72,2.66,9.17,29.42,11.58,30.88c1.41,0.86,2.94,2.08,4.45,2.13c4.47,0.14,9,1.02,13.4-1.06c8.44-3.97,8.5-3.86,12.69-11.41
		c1.31-2.37,4.52-0.66,6.1-3.51C988.39,1064.01,983.17,1044.82,970.56,1036.71z M670.57,915.03c-1.75,17.85,0.75,34.54,7.11,50.72
		c1.31,3.33,4.54,4.02,7.63,4.07c10,0.14,20,0.04,30,0.08c2.73,0.01,4.64-0.34,5.07-3.86c1.45-12.02-4.1-22.85-15.35-27.8
		c-8.01-3.52-14.87-8.48-21.45-14.1C679.84,920.95,676.4,917.19,670.57,915.03z M640.75,969.91c0,0.01,0,0.03,0,0.04
		c3.89,0,7.8-0.31,11.65,0.07c6.95,0.68,9.49-0.78,6.42-8.39c-4.76-11.8-9.23-23.76-12.05-36.24c-3.14-13.92-3.29-14.07-15.66-5.83
		c-4.18,2.79-10.34,3.73-11.35,10.08c-1.48,9.31-3.09,18.64-1.98,28.13c1.35,11.49,2.1,12.13,13.82,12.14
		C634.65,969.91,637.7,969.91,640.75,969.91z M1304.54,637.14c3.58-0.47,9.34,1.64,12.67-3.16c2.21-3.17,0.35-7.05-1.51-10.21
		c-8.53-14.48-38.08-16.15-48.23-2.74c-3.21,4.24-2.9,7.53,2.64,9.52C1280.86,634.4,1291.75,637.48,1304.54,637.14z M837.1,1428.67
		c-1.71-4.7,0.87-7.41,2.7-10.41c0.49-0.81,0.83-2.26,0.43-2.95c-0.96-1.65-2.24-0.49-3.51,0.04c-3.91,1.6-6.26,6.1-11.95,6.46
		c0.94-3.49,2.1-6.28,2.34-9.14c0.21-2.54-1.42-4.7-3.54-6.23c-0.95-0.68-2.87-0.88-2.81,0.01c0.33,4.89-6.06,6.64-5.14,11.72
		c0.4,2.2,2.74,5.06-0.6,6.57c-3.13,1.42-4.28-1.85-5.67-3.67c-2.3-3.04-6-4.43-8.63-3.19c-2.76,1.3-1.11,5.55-1.29,8.48
		c-0.18,2.89-0.77,6.68,3.48,7.32c5.49,0.82,10.85,3.67,16.61-0.7c3.33-2.52,10.59-4.13,11.69,0.35c1.9,7.74,5.67,4.27,9.59,3.92
		c2.92-0.26,7.58-3.6,7.46,3.37c-0.03,1.6,1.33,2.35,2.83,2.45c2.12,0.15,3.03-1.34,3.21-3.06c0.39-3.77,1.5-7.66-1.89-10.91
		C847.53,1424.4,842.46,1424.22,837.1,1428.67z M736.32,842.45c5.65-21.53-7.88-31.58-21.45-43.23c0.79,13.7,12.6,21.51,14.53,34.02
		c-6.15-1.19-8.4-6.79-14.7-8.06c5.76,15.63,17.49,23.91,30.06,33.73c0.04-10.12,2.3-18.34,0.56-26.87
		C740.99,834.02,742.64,839.17,736.32,842.45z M748.9,931.91c0-4.42,0.23-7.71-0.05-10.95c-0.42-4.85,2.08-10.48-1.9-14.41
		c-7.37-7.26-15.32-13.93-23.57-21.34C720.74,911.08,724.26,917.52,748.9,931.91z M595.3,922.23c-5.03,6.69-6.52,14.54-15.71,14.27
		c-3.58-0.11-3,3.97-1.88,5.88c5.21,8.85,10.65,17.57,16.37,26.1c2.27,3.39,6.1,1.67,9.29,1.27c1.83-0.23,1.88-1.85,1.34-3.23
		C599.32,952.72,598.46,937.91,595.3,922.23z M556,970.02c3.77-1.04,9.3,2.26,11.34-1.66c1.96-3.76-3.27-7.09-4.81-10.88
		c-0.72-1.77-1.98-3.33-3.08-4.93c-4.55-6.69-6.67-6.83-11.63-0.29c-3.32,4.38-7.71,9.27-4.95,14.91
		C545.39,972.32,551.44,969.07,556,970.02z M707.85,894.45c-0.93-7.08-1.63-13.32-2.63-19.52c-0.54-3.32-1.91-7.79-6.06-5.27
		c-3.76,2.27-11.66,3.34-8.6,10.56C693.48,887.1,698.91,892.27,707.85,894.45z M762.85,931.39c0,3.97-0.04,7.28,0.02,10.59
		c0.03,1.65,0.03,3.47,2.49,3.32c5.02-0.32,10.94-10.88,8.02-14.95c-2.62-3.66-4.11-10.82-8.53-9.92
		C760.42,921.33,764.36,928.13,762.85,931.39z M751.11,969.36c-4.12-5.5-8.97-9-14.06-12.1c-1.9-1.16-4.45-3.26-6.63-0.56
		c-1.84,2.28-0.47,4.96,0.75,6.97C735.73,971.17,742.93,970.3,751.11,969.36z M787.28,1436.65c-0.32-4.6-2.91-8.19-6.08-6.48
		c-3.53,1.92-6.36,6.27-7.97,10.19c-1.03,2.52,2.75,4.28,5.12,3.66C782.49,1442.96,786.94,1441.53,787.28,1436.65z M1072.97,1430.57
		c1.41,10.11,8.18,11.6,14.06,13.7c2.13,0.76,5.89,3.33,6.6-1.21c0.42-2.71-1.01-6.41-4.99-6.37
		C1083.27,1436.75,1078.54,1435.22,1072.97,1430.57z M1055.92,1425.97c2.11-0.55,6.19-0.29,5.27-2.47c-1.8-4.3-4.22-9.21-10.21-9.48
		c-2.26-0.1-5.13,0.04-4.55,3.21C1047.36,1422.3,1050.52,1425.56,1055.92,1425.97z M960.72,1426.6c-1.54-4.01-4.08-6.99-8.95-7.05
		c-2.99-0.04-5.16,1.57-4.7,4.48c0.99,6.25,7.06,3.16,10.51,5.07C959.33,1430.06,960.77,1429.09,960.72,1426.6z M1047.65,1439.57
		c0.75,3.16,1.16,6.92,4.66,7.27c4.85,0.48,3.97-4.17,4.78-7.05c0.65-2.32,0.45-4.76-2.74-4.56
		C1051.45,1435.41,1048.2,1435.77,1047.65,1439.57z M903.95,1411.26c-3.58-0.04-5.8,0.46-4.91,3.63c0.75,2.67,0.21,6.58,4.7,6.57
		c2.63-0.01,5.41-0.76,5.32-3.88C908.94,1413.96,906.84,1411.45,903.95,1411.26z M839.72,1404.03c0.39-0.12,4.44,1.05,3.92-3.05
		c-0.4-3.17-3.11-6.5-6.4-6.61c-3.27-0.11-3.64,4.16-4.24,6.55C832.23,1403.95,834.88,1404.87,839.72,1404.03z M748.83,792.74
		c2.3-5.68,2.77-11.43,1.16-17.28C747.31,781.05,746.71,786.79,748.83,792.74z M872.79,1437.35c-0.28-1.03,0.07-3.63-2.24-2.89
		c-3.01,0.97-6.38,2.25-7.02,6.24c-0.4,2.5,0.76,3.65,3.14,3.7C871.13,1444.49,871.95,1441.18,872.79,1437.35z M922.05,1428.41
		c-0.59-1.8,0.54-5.4-2.89-5.6c-2.52-0.15-3.22,2.58-3.31,4.97c-0.09,2.51,0.64,4.46,3.44,4.77
		C922.19,1432.88,922.43,1431.03,922.05,1428.41z M742.34,1426.04c-0.92-2.67-3.57-2.96-6.36-2.91c-1.94,0.03-4.54,0.35-4.21,2.62
		c0.51,3.59,3.75,4.12,6.92,4.17C740.96,1429.95,742.35,1429.14,742.34,1426.04z M1086.95,1431.91c3.54-8.82,2.59-10.56-5.25-11.41
		C1083.31,1423.99,1084.86,1427.36,1086.95,1431.91z M761.89,1417.57c-5.89-1.55-10.09-0.61-16.09,1.77
		C752.38,1421.88,756.75,1422.27,761.89,1417.57z M1070.44,1447.07c-2.79-0.03-3.69,1.81-3.7,4.21c-0.01,2.83,2.11,2.56,4.03,2.55
		c2.36-0.01,4.59-0.42,4.44-3.35C1075.08,1447.72,1072.77,1447.27,1070.44,1447.07z M762.42,1437.39c2.23-0.65,2.22-2.36,2-4.02
		c-0.26-1.95-1.4-2.98-3.46-2.36c-1.35,0.41-2.91,1.13-2.52,2.75C758.91,1435.67,760.49,1436.89,762.42,1437.39z M951.75,1435.78
		c-1.53-0.09-2.81,0.55-2.99,2.05c-0.34,2.81,1.84,3.68,4,4.28c1.76,0.49,3.53,0.17,3.45-2.04
		C956.11,1437.47,953.64,1436.87,951.75,1435.78z M1029.47,1425.32c1.41,0.14,3.79,0.8,4.14-1.8c0.44-3.25-2.18-3.98-4.77-4.04
		c-2-0.04-4.91-0.95-5.13,2.23C1023.47,1425.33,1026.89,1424.53,1029.47,1425.32z M1144.58,1426.56c1.92-0.18,4.14-0.31,4.36-2.72
		c0.23-2.49-1.72-3.25-3.82-2.98c-2.03,0.26-4.77,0.01-4.75,3.2C1140.38,1426.94,1142.75,1426.41,1144.58,1426.56z"/>
	<path class="st2" d="M1105.34,720.9c-3.86-3.89-5.41-9.89-1.87-12.83c3.68-3.05,9.53-1.04,13.18,3.52c1.7,2.12,3.5,4.18,6.53,4.86
		c5.18,1.16,7.7-0.64,6.94-5.9c-4.21-29.25-18.76-50.67-46.96-61.75c-3.16-1.24-6.9-1.66-9.16-5.78
		c11.46,3.66,20.52-1.12,29.71-6.53c6.8-4,14.58-3.75,21.94-1.41c12.88,4.09,25.76,6.81,39.38,4.33c6.15-1.12,11.49,1.2,15.76,5.83
		c4.78,5.17,10.38,9.42,16.82,12.08c29.54,12.21,58.06,26.98,88.93,35.89c19.77,5.71,39.18,11.93,60.57,5.71
		c4.32-1.26,11.25,8.32,19.34,5.31c3.4,7.31,8.2,7.3,13.82,2.6c1.81-1.51,3.02-0.58,4.16,0.78c1.52,1.82,3.49,3.28,5.78,2.71
		c12.69-3.17,15.48,7.34,19.23,14.82c6.88,13.71,12.08,15.2,22.31,3.65c10-11.29,17.91-24.19,24.35-37.75
		c4.95-10.44,1.53-20.73-3.82-30.32c-7.49-13.43-18.25-24.65-26.24-37.64c-11.46-18.63-27.99-29.97-47.28-39
		c-38.18-17.89-71.71-43.58-107.35-65.73c-26.71-16.59-49.61-38.43-75.18-56.65c-2.54-1.81-3.96-4.63-5.16-7.47
		c-4.14-9.75-11.71-14.65-22.08-15.05c-6.73-0.26-9.74-2.76-10.11-10.02c-0.68-13.3-8.11-21.03-21.51-22.3
		c-9.37-0.89-17.15-3.52-22.92-11.33c-1.94-2.63-4.75-4.71-7.4-6.73c-7.58-5.78-16.65-5.63-23.36,1.04
		c-7.54,7.49-16.52,10.89-26.84,11.79c-8.64,0.75-17.08,2.36-24.79,6.73c-2.15,1.22-4.57,2.37-6.98,2.69
		c-20.27,2.77-39.15,10.33-58.4,16.64c-5.87,1.92-11.21,0.89-16.84-1.89c-9.47-4.67-19.37-8.45-29.14-12.49
		c-3.01-1.25-6.35-1.42-8.32,1.57c-1.96,2.98-2.17,7.04,0.67,9.27c10.88,8.54,14.11,20.76,17.17,33.22
		c0.46,1.86,2.05,3.83,0.67,5.44c-1.67,1.94-4.06,0.91-6.22,0.19c-10.5-3.47-18.9-10.61-28.06-16.34
		c-9.45-5.91-17.97-5.75-27.28-0.04c-3.38,2.07-4.49,4.64-4.82,7.94c-0.33,3.35,2.22,4.68,4.8,6.06
		c8.46,4.54,17.94,7.96,19.25,19.82c0.22,2.02,3.87,3.71,6.04,5.44c1.99,1.59,2.48,3.56,2.04,5.94c-0.52,2.79-2.74,3.24-4.98,3.61
		c-9.67,1.6-18.83-0.39-27.66-4.19c-6.64-2.86-13.14-6.04-19.78-8.89c-3.59-1.54-7.4-2.64-11.38-1.96c-3.49,0.6-6.25,2.52-7.61,5.85
		c-1.33,3.25-0.24,6.54,2.36,8.26c13.38,8.88,14.03,24.05,18.57,37.19c2.33,6.75-0.81,9.59-7.74,7.76
		c-4.54-1.2-8.87-3.18-13.28-4.86c-3.63-1.38-7.17-3.06-10.89-4.15c-4.31-1.27-9.23-2.54-12.06,2.25c-2.7,4.58,0.11,8.94,3.25,12
		c7.14,6.96,12.07,15.17,15.88,24.23c0.55,1.3,1.52,2.59,0.53,3.83c-1.3,1.64-3.03,0.94-4.52,0.1c-1.94-1.09-3.72-2.48-5.71-3.42
		c-2.63-1.24-5.53-4.1-8.29-1.46c-2.58,2.47-0.66,5.87,0.48,8.59c2.24,5.38,5.23,10.47,7.18,15.94c0.83,2.34,3.41,5.59,1.01,7.67
		c-2.58,2.25-5.02-1.08-7.31-2.31c-4.41-2.36-8.57-5.19-12.99-7.54c-2.19-1.16-4.89-2.01-7.16-0.36c-2.55,1.86-1.22,4.55-0.68,6.92
		c0.99,4.4,3.18,8.27,5.48,12.09c1.86,3.11,3.69,6.34,3.69,10.05c0,2.9,1.23,6.62-2.23,8.25c-3.32,1.57-5.58-1.23-7.94-3.19
		c-4.4-3.65-8.83-9.53-15.11-5.69c-6.87,4.2-2.27,11.01-0.43,15.84c3.8,9.99,3.44,18.87-2.65,27.68c-3.59,5.19-7.12,6.93-11.76,1.23
		c-1.75-2.15-3.74-4.13-5.78-6.03c-1.77-1.64-3.58-4.12-6.39-2.07c-2.52,1.83-1.64,4.55-0.84,6.89c2.17,6.31,4.53,12.56,6.79,18.84
		c0.71,1.98,2.59,4.29-0.33,5.78c-2.39,1.22-4.2-0.51-5.7-2.28c-2.87-3.4-5.78-6.77-8.57-10.24c-1.61-1.99-3.16-4.34-6.09-3.15
		c-3.3,1.34-2.82,4.43-2.45,7.22c0.66,4.96,2,9.84,1.5,14.92c-0.19,1.92,0.02,4.17-2.3,4.89c-2.55,0.79-4.14-0.78-5.41-2.83
		c-3.66-5.92-7.26-11.88-11.08-17.7c-1.63-2.48-3.08-6.22-6.48-5.77c-3.49,0.46-3.71,4.43-4.39,7.33c-1.03,4.33-1.87,8.7-2.66,13.08
		c-0.86,4.76-2.69,9.01-5.7,12.82c-3.89,4.92-7.32,5.65-10.76-0.48c-4.83-8.61-11.72-15.51-18.97-22.06
		c-1.96-1.77-3.63-4.82-6.94-3.37c-2.87,1.26-3.47,4.28-3.75,7.05c-0.97,9.37-0.72,18.8-3.97,27.98c-2.43,6.87-5.35,6.82-9.79,2.54
		c-8.1-7.81-18.16-12.77-27.29-19.08c-6.21-4.29-10.76-2.29-11.39,5.19c-0.56,6.64-0.17,13.37-0.39,20.05
		c-0.09,2.68,0.32,5.94-3.08,7.09c-3.58,1.21-6.71-0.24-8.86-3.02c-3.05-3.94-5.44-8.41-8.57-12.28c-3.64-4.51-8.39-7.89-14.49-6.01
		c-5.76,1.78-10.39,5.17-10.64,12.23c-0.14,3.87-0.93,7.71-1.22,11.58c-0.28,3.66-0.5,7.37-3.12,10.16c-2,2.13-3.65,5.75-7.2,4.81
		c-3.3-0.88-2.48-4.59-3-7.19c-2.56-12.6-3.4-13.24-16.57-13.02c-5.08,0.08-10.01,0.91-14.73,2.65
		c-12.61,4.64-17.15,12.94-14.51,26.15c2.29,11.47-7.73,22.77-19.08,21.54c-2.96-0.32-4.15-2.31-5.08-4.82
		c-1.54-4.17-2.91-8.46-5.02-12.34c-6.89-12.71-10.36-14.48-24.57-12.66c-6.02,0.77-8.86,0.56-6.2-7.11
		c40.88-117.89,110.33-214.47,212.63-286.81c82.31-58.21,173.64-92.77,273.47-106.02c89.28-11.85,176.1-1.11,260.87,27.55
		c92.56,31.29,173.79,81.47,240.29,153.24c85.03,91.78,136,200.18,152.04,324.67c4.65,36.08,4.71,72.19,2.89,108.39
		c-0.41,8.22-4.91,12.02-12.46,9.59c-3.08-0.99-5.97-1.06-8.95-1.06c-174.69-0.03-349.39,0.01-524.08,0.02
		c-48.76,0-97.51-0.07-146.27-0.22c-2.1-0.01-5.39,1.97-6.19-1.91c-0.68-3.29,2.59-3.85,4.51-5.12c11.95-7.91,26.52-8.66,39.3-14.25
		c5.93-2.6,13.05-3.81,15.58-11.35c1.16-3.47,3.78-1.64,5.48-0.71c11.97,6.52,22.52,3.47,32.5-4.39c9.38-7.38,20.38-8.5,31.65-7.36
		c8.81,0.89,12.62,8.42,16.86,14.79c2.9,4.37,4.89,9.35,7.2,14.1c0.74,1.53,1.21,3.24,3.45,2.74c1.77-0.39,1.62-2.01,1.9-3.29
		c1.57-7.04,0.98-14.01-2.14-20.42c-5.57-11.46-13.68-20.94-24.43-27.87c-7.31-4.71-14.85-3.69-22.11,0.49
		c-3.87,2.23-7.63,4.62-12.19,5.22c-1.62,0.21-3.41,1.08-4.61-0.58c-1.17-1.62-0.35-3.79,0.78-4.53c4.66-3.04,1.13-10.66,6.81-12.51
		c7.45-2.42,15.16-3.49,23.08-2c4.68,0.88,9.31,1.82,13.53,4.1c4.12,2.23,8.18,4.58,12.63,7.08c1.64-4.22-1.34-5.98-3.49-7.68
		c-16.84-13.31-35.48-21.83-57.5-21.02c-5.42,0.2-10.37,1.86-15.01,4.62c-3.21,1.92-5.3,4.75-3.84,8.31c2.29,5.58-1,8.2-4.64,11.04
		c-10.86,8.47-20.61,18.73-36.19,18.44c-5.08-0.09-9.47,3.69-11.57,8.57c-3.91,9.11-11.38,12.44-20.4,13.68
		c-12.16,1.68-24.52-1.07-36.64,1.75c-2.39,0.56-3.34-0.79-3.7-3.21c-1.95-13.09,4.57-21.28,17.75-23.19
		c18.15-2.62,36.27-5.55,54.33-8.78c12.25-2.2,20.62-13.39,20.64-26.71c0-3.61-0.43-7.22-0.75-10.83c-0.18-1.97-0.69-4.62,0.92-5.54
		c12.25-6.98,16.79-22.18,30.58-27.79c7.44-3.03,14.15-1.7,21.19-0.31c6.76,1.34,13.26,3.99,20.55,4.27
		c-0.36-1.15-0.43-2.03-0.87-2.67c-12.42-18.08-46.54-23.33-63.82-9.85c-2.13,1.66-4.02,4.63-7.08,3.4
		c-2.91-1.18-1.73-4.41-1.72-6.76c0.02-3.13-0.44-5.95,3.52-8.35c13.98-8.48,28.66-11.14,44.46-6.75c0.39-3.81-1.91-4.99-3.47-6.32
		c-17.75-15.09-53.88-10.27-66.6,9.23c-4.56,6.98-8.16,14.75-1.49,23.03c2.2,2.73,1.23,6.44,0.89,9.75
		c-0.28,2.77-1.35,5.66-0.87,8.28c2.48,13.34-4.79,20.57-15.92,24.34c-13.11,4.43-24.13,14.84-38.46,14.96
		c-10.6,0.09-22.9,3.47-30.33-8.94c-2.63-4.4-6.7-3.17-10.18-0.72c-5.51,3.86-8.27,9.66-10.25,15.82c-1.86,5.76-4.96,6.08-9.27,2.61
		c-4.32-3.47-8.09-7.65-13.28-10.01c-1.94-0.88-2.44-2.96-2.68-4.94c-1.32-10.78-2.84-21.57-2.11-32.47
		c0.62-9.37,2.52-10.32,11.45-6.38c1.72,0.76,3.61,1.12,6.58,2.02c-1.47-5.96-3.98-10.15-7.18-14.22
		c-11.63-14.82-5.28-35,12.78-40.35c5.63-1.67,8.48-4.89,8.79-10.61c0.32-6.12,0.67-12.24,1.01-18.36c0.1-1.79,0.64-3.51,2.58-3.78
		c2.65-0.38,3.02,1.71,3.42,3.73c3.4,17.05,5.03,34.06,1.42,51.39c-1.66,7.96-1.88,16.23-1.77,24.59
		c10.01-17.47,18.84-35.26,24.56-54.45c3.03-10.16,5.37-20.46,5.55-31.14c0.03-1.87-0.65-4.33,1.81-4.95
		c2.18-0.55,3.59,1.48,4.56,3.07c9.17,14.94,12.55,25.5,2.75,40.18c-9.14,13.7-14.79,29.1-19.64,44.74
		c-1.01,3.25-2.44,6.8-0.38,11.21c4.39-5.4,6.12-11.57,8.51-17.2c4.68-11.04,10.17-22.74,18.98-29.55
		c14.68-11.34,11.85-29.59,21.22-42.45c0.63-0.86,0.91-1.97,1.46-2.91c0.24-0.41,0.74-0.68,1.78-1.57
		c-0.5,13.43-5.5,25.6-6.54,40.66c5.14-5.66,6.54-10.73,8.52-15.38c7.5-17.52,14.83-35.11,22.23-52.67c0.94-2.23,1.4-5.69,4.47-5.18
		c3.41,0.56,3.01,4.14,3.02,6.82c0.07,10.53,0.03,21.06,1.03,31.75c8.81-19.92,10.91-41.56,16.92-62.25
		c0.39,5.41,0.78,10.83,1.26,17.48c4-3.17,3.38-7.12,5.98-11.28c0,13.76,0,26.11,0,38.47c10.59-11,9.55-26.3,16.05-39.86
		c4.76,7.11,7.18,13.96,8.9,20.76c5.86,23.2,21,38.45,40.51,50.81c26.61,16.86,54.05,32.2,82.57,45.49
		c22.06,10.29,37.56,28.4,55.22,43.96c9.18,8.09,18.1,16.46,27.15,24.7c6.69,6.09,14.37,10.34,23.04,13.02
		c15.15,4.68,30.18,9.07,46.31,4.66c10.07-2.75,20.91-0.55,30.91-4.9c10.72-4.66,12.33-11.13,4.25-19.62
		c-3.58-3.76-7.97-5.86-12.72-7.64c-18.01-6.75-35.25-15.03-51.85-24.81c-10.31-6.08-18.13-14.71-26.27-23.04
		c-11.87-12.15-23.85-24.16-36.5-35.52c-11.68-10.5-19.32-23.57-23.77-38.54c-3.15-10.57-4.7-21.66-10.24-31.44
		c2.63,0.23,6.13,2.36,6.35-2.78c0.08-1.79,0.83-4.74-1.62-4.65c-3.26,0.12-3.43,3.53-3.87,6.19
		C1105.94,719.97,1105.57,720.43,1105.34,720.9z M1169.98,753.8c-8.88,7.91-15.74,17.91-25.73,24.72c-3.34,2.27-2.19,5.41-0.07,7.99
		c2.59,3.16,6.06,3.49,8.75,0.7c8.89-9.25,17.27-18.91,17.94-32.71c1.11-0.14,1.31-1.03,0.71-1.56
		C1170.88,752.32,1170.24,752.99,1169.98,753.8z M1209.41,815.26c-1.55-0.36-1.71-1.75-2.19-2.91c1.96-7.26,8.56-13.13,6.84-23.74
		c-8.5,12.2-17.82,21.08-27.27,29.84c-3.21,2.97-3.73,6.88-1.58,10.61c2.53,4.4,6.52,4.5,10.78,2.65c1.02,0.27,2.04,0.53,3.06,0.8
		c-2.33,3.65-2.75,6.91,1.76,9.29c4.73,2.49,7.76-0.1,10.57-3.44c2.72-3.24,1.6-8.78,6.43-10.76c-1.59,11.38,0.43,13.83,9.84,11.96
		c-2.42,0.16-3.8,2.03-5.58,3.29c-3.37,2.37-8.26,4.8-4.93,9.46c3.1,4.35,9.13,5.31,13.41,1.98c8.15-6.35,14.55-14.38,19.02-25.33
		c-8.9,2.86-14.32,9.15-22.04,10.66c13.03-16.18,20.79-34.2,20.34-57.57c-10.84,16.58-19.09,32.13-30.25,45.74
		c0.16-9.77,6.16-18.47,5.48-30.36C1217.88,804.26,1213.65,809.76,1209.41,815.26z M1322.87,725.93c-0.07-2.43,0.07-4.88-0.27-7.27
		c-0.54-3.79-2.69-5.14-5.51-2.06c-7.95,8.69-11.67,19.57-16.89,31.89c11.33-5.97,16-15.42,22.82-22.74
		c-1.6,8.41-5.39,15.87-9.57,23.25c-0.94,1.66-4.57,3.74-1.61,6.23c2.55,2.14,4.43-1.09,6.62-1.88c2.63-0.96,4.65-6.35,7.24-3.48
		c4.34,4.8,5.81,0.27,7.75-1.47c6.5-5.84,10.69-13.48,14.71-21.06c1.78-3.36,7.72-7.5,1.88-11.18c-5.2-3.27-6.38,3.34-9.01,6.09
		c-0.18,0.19-0.83-0.06-1.37-0.12c0.12-0.82,0.2-1.64,0.37-2.43c1.08-4.97,0.27-9.09-5.45-10.23c-5.71-1.14-6.85,3.08-8.1,7.31
		C1325.56,719.9,1325.42,723.41,1322.87,725.93z M1256.28,857.96c0.58,1.04,1.15,2.09,1.73,3.13c-2.12,3.83-0.51,6.41,2.99,8.02
		c2.59,1.19,5.05,0.33,6.54-2.03c6.91-10.92,10.61-22.98,12.65-35.68c-2.76,2.23-4.67,4.87-6.75,7.37c-1.21,1.46-2.7,3.64-4.71,2.59
		c-2.48-1.3-0.43-3.23,0.26-4.9c1.37-3.33,3.06-6.6,3.84-10.08c1.25-5.52,4.66-10.95,1.54-18.69
		c-9.98,16.71-20.78,30.89-33.42,43.73c-3.95,4.01-1.74,8.3,3.96,9.79C1249.31,862.39,1252.94,860.63,1256.28,857.96z
		 M1335.83,754.61c0.51,0.71,1.02,1.42,1.53,2.13c6.21-3.37,12.38-6.81,18.66-10.05c2.21-1.14,5.69-3.97,6.71,0.26
		c1.88,7.8,4.63,1.73,7.26,1.1c3.95-0.94,5.85-11.45,12.02-2.67c0.24,0.34,2.2-0.13,3.04-0.69c6.06-4.04,11.45-8.79,15.27-15.13
		c1.27-2.1,1.95-4.25-0.23-5.95c-2.3-1.8-4.65-1.32-6.68,0.81c-2.19,2.29-3.1,5.82-7.33,7.31c0.93-3.77,4.53-7.91,0.93-10.24
		c-4.94-3.2-9.25,0.88-13.66,4.08c-0.41-5.31-1.03-10.38-7.16-11c-5.81-0.59-9.09,3.04-11.55,7.87
		C1349.01,733.52,1343.91,744.9,1335.83,754.61z M1277.11,701.88c0.69-3.21-0.97-5.01-4.07-5.92c-5.79-1.69-10.1-0.51-13.11,5.32
		c-5.06,9.79-8.98,20.27-16.33,28.77c-1.03,1.19-2.87,2.5-1.62,4.18c1.57,2.12,3.55,0.57,5.16-0.36
		c10.67-6.19,19.69-14.28,27.16-24.07C1276.01,707.57,1276.86,704.9,1277.11,701.88z M1257.34,694.31c0.08-3.03-0.65-5.55-4.08-6.25
		c-3.51-0.72-6.77-0.42-8.28,3.42c-5.04,12.86-10.03,25.74-16.91,37.78c-0.72,1.26-1.1,2.83,0.25,3.73
		c1.69,1.14,3.21-0.14,4.34-1.26c5.66-5.66,11.19-11.45,15.3-18.39C1251.58,707.24,1256.96,702,1257.34,694.31z M1263,739.53
		c0.52,0.52,1.04,1.05,1.56,1.57c12.2-6.55,21.3-16.64,29.63-27.5c2.57-3.36,6.6-7.53,1.04-11.29c-5.04-3.41-10.05-2.56-13.31,3.28
		C1275.62,716.91,1269.31,728.22,1263,739.53z M1374.72,758.12c3.01,2.26,3.26,2.61,3.44,2.57c11.26-2.31,21.57-6.73,30.26-14.34
		c2.67-2.34,5.08-5.29,1.56-9.2c-2.64-2.93-5.7-5.49-9.16-2.58C1392.07,741.96,1383.77,749.89,1374.72,758.12z M1288.9,739.5
		c1.14-1.03,2.37-2.12,3.58-3.24c7.1-6.52,14.22-12.96,20.35-20.51c2.65-3.26,7.15-5.56,2.02-9.76c-4.42-3.61-8.66-2.81-11.99,2.05
		c-5.9,8.63-9.28,18.74-15.86,27C1285.89,736.45,1285.88,738.79,1288.9,739.5z M1193.62,786.94c-0.7-0.55-1.41-1.09-2.11-1.64
		c-5.92,6.36-11.52,13.05-17.85,18.96c-5.02,4.69-3.1,8.13,0.81,11.53c4.23,3.67,8.92,2.77,11.27-1.7
		C1190.19,805.65,1193.23,796.57,1193.62,786.94z M1216.27,715.37c0.78,0.6,1.56,1.2,2.35,1.8c8.58-5.62,13.23-14.98,19.84-22.46
		c1.83-2.07,2.7-4.93,1.99-7.77c-0.44-1.79-0.92-3.89-3.23-4.38c-2.3-0.49-4.47-0.33-5.69,2.1
		C1226.42,694.89,1221.35,705.13,1216.27,715.37z M1289.25,846.6c-5.52,8.2-11.1,16.36-16.51,24.62c-1.93,2.94-3.22,6.32,1.05,8.41
		c3.55,1.74,6.29,0.48,8.17-3.13C1286.74,867.31,1290.15,857.75,1289.25,846.6z M1180.24,770.16c-8.28,6.19-15.2,13.55-21.57,21.47
		c-2.61,3.24-2.12,6.08,0.67,8.72c2.34,2.21,5.04,1.58,6.41-0.75C1171.26,790.22,1177.21,781.03,1180.24,770.16z M1152.44,749.77
		c-8.29,5.15-14.62,8.96-20.82,12.97c-2.73,1.76-3.31,4.27-1.39,7.12c1.88,2.79,4.89,3.78,7.08,1.63
		C1143.05,765.86,1149.73,760.71,1152.44,749.77z M1141.41,736.57c-6.15,4.76-11.1,8.44-15.86,12.34c-2.48,2.03-2.92,4.7-0.62,7.21
		c2.18,2.38,4.48,1.57,6.48-0.37C1136.37,750.96,1140.43,745.65,1141.41,736.57z M1212.18,698.42c7.93-4.02,12.56-8.98,15.33-15.57
		c0.98-2.35,1.13-5.11-1.72-6.52c-1.83-0.91-3.92-0.82-5.05,1.32C1217.45,683.89,1213.26,689.78,1212.18,698.42z M1131.92,727.83
		c-3.62,3.94-9.69,5.03-10.97,10.96c-0.35,1.61,0.13,3.43,2.27,3.83c2.65,0.49,4.34-1.23,5.36-3.16c1.77-3.34,5.45-5.74,5.2-10.05
		C1133.76,728.92,1132.73,728.49,1131.92,727.83z M1216.47,675.77c-0.11-2.87-1.62-5.22-3.97-4.46c-5.49,1.79-5.07,7.95-7.52,12.04
		c-0.89,1.47,0.38,3.18,1.82,2.69C1211.82,684.34,1214.98,680.63,1216.47,675.77z M1122.37,723.83c-0.63-1.25,0.71-4.66-2.19-3.85
		c-3.59,1-4.8,5.06-5.72,8.4c-0.45,1.62,0.87,4.24,3.28,3.68C1121.74,731.13,1121.5,727.25,1122.37,723.83z M1206.96,668.61
		c-0.21-1.64-0.81-3.02-2.57-2.32c-2.96,1.18-3.39,4.15-4.08,6.8c-0.41,1.57,0.32,3.11,1.99,2.66
		C1205.82,674.8,1205.66,671.11,1206.96,668.61z M1263,742.06c0.44-0.3,1.02-0.51,1.2-0.9c0.11-0.24-0.37-0.77-0.59-1.16
		c-0.41,0.28-0.99,0.49-1.16,0.87C1262.33,741.13,1262.8,741.65,1263,742.06z"/>
	<path class="st2" d="M880.76,1350.61c8.27,0.02,16.55,0.03,24.81,0.05c8.97,1.01,17.96,0.95,26.94-0.03
		c8.86,0.01,17.72,0.03,26.57,0.04c2.18,0.2,4.38,0.57,6.57,0.56c32.98-0.17,65.96-0.38,98.94-0.59c9.4-0.01,18.81-0.01,28.2-0.02
		c2.19,0.21,4.39,0.6,6.59,0.6c84.32,0.01,168.64-0.01,252.96-0.05c2.2,0,4.4-0.38,6.6-0.59c2.16,0.22,4.32,0.45,6.64,0.69
		c-1.29,6.53-7.57,6.97-11.37,10.14c-18.21,15.22-37.09,29.54-57.61,41.57c-7.87,4.62-16.38,8.42-23.5,13.99
		c-9.69,7.58-18.58,5.39-27.39-0.24c-6.56-4.19-11.76-4.15-16.63,2.12c-1.36,1.74-2.91,3.82-5.38,3.35
		c-2.83-0.53-2.62-3.18-2.66-5.39c-0.1-4.86-2.37-4.29-5.16-2.03c-4.51,3.65-6.83,8.64-8.21,14.12c-0.45,1.8-0.05,3.96-2.16,4.87
		c-1.93-0.55-2.32-2.09-1.96-3.31c2.67-8.96-6.66-8.54-10.07-12.68c-1.21-1.46-2.47,1.13-3.24,2.57c-2.02,3.75-2.76,7.85-3.38,11.98
		c-0.54,3.6-2.17,6.59-5.95,7.1c-3.63,0.49-7.37,0.07-4.71-5.33c0.55-1.13,2.52-2.34,0.86-3.32c-9.3-5.51-2.41-6.74,2.15-8.65
		c2.83-1.19,3.26-3.58,3.01-6.22c-0.24-2.6-1.9-3.82-4.35-4.31c-5.34-1.06-10.6-2.37-16.81-5.63c6.57-1.69,12.18-1.47,17.78-4.32
		c-7.79-7.59-17.81-4.63-27.19-6.63c3.84-5.86,9.83-4.37,16.43-7.14c-8.21-4.98-15.26-9.36-22.45-13.5c-1-0.58-2.75,0.34-4.07,0.1
		c-10.44-1.88-4.46,13.5-13.74,12.96c-5.01-0.29-8.64,8.32-6.86,17.59c1.39,7.21,6.48,14.5-3.2,19.92c1.62,1.04,2.06,1.56,2.46,1.53
		c2.9-0.22,5.84-2.7,8.65-0.08c1.11,1.04,1.05,3.17-0.32,3.59c-4.86,1.48-9.24,6.31-14.68,3.84c-5.29-2.41-9.84-6.34-13.58-10.85
		c-2.49-3-2.27-5.77,2.59-6.08c2.8-0.18,5.03-1.05,7.46-2.88c7.69-5.78,7.81-6.32-1.26-11.13c-2.13-1.13-4.39-1.99-6.65-2.99
		c0.51-0.79,0.68-1.41,1.06-1.58c2.75-1.26,7.89,1.31,8.1-3.39c0.14-3.22-4.56-3.33-7.28-4.37c-3.84-1.47-7.84-2.53-11.55-3.7
		c-0.74-2.71,1.29-3.08,2.46-4.1c3.24-2.82,2.77-4.64-1.57-5.06c-4.42-0.44-8.85-0.77-13.28-1.01c-2.12-0.11-3.19-0.69-2.16-2.96
		c0.11-0.66,0.21-1.31,0.32-1.97c-0.74,0.12-1.48,0.23-2.21,0.35c-3.21,0.78-6.42,1.52-9.61,2.37c-1.32,0.35-3.12,1.75-3.8,1.31
		c-11.49-7.55-11.82,4.45-15.75,9.24c-3.49,4.26,0.4,13.71-9.53,13.68c2.39,6.65-4.82,7.77-6.87,11.87
		c-0.53,1.06-1.68,1.36-3.52,0.87c0.26-3.57,1.92-8.28-5.18-7.79c-3.76,0.26-2.27-2.61-0.8-4.53c0.85-1.12,1.61-2.53,0.54-3.76
		c-1.11-1.28-2.55-0.43-3.81,0.1c-6.65,2.8-13.6,5.07-19.85,8.57c-4.79,2.69-6.47,2.18-6.01-3.47c-4.23,0.74-4.64,5.39-7.98,6.18
		c-1.84,0.43-4.12,1.06-5.65,0.37c-2.85-1.28-0.32-3.15,0.19-4.8c1.8-5.79-2.57-4.43-5.19-4.04c-5.62,0.83-6.05-0.94-3.16-5.14
		c3.95-5.75,6.75-12.01,8.91-19.56c-8.98,0.86-12.04,9.96-20.69,12.61c4.53-8.15-3.09-10.9-5.48-15.89
		c-1.45-3.03-3.81,0.02-4.24,1.16c-2.78,7.4-11.88,9.71-13.81,18.03c-0.88,3.78-3.14,1.08-4.47-0.8
		c-3.53-4.97-7.15-9.87-10.64-14.87c-0.98-1.4-1.81-3.18-3.74-2.57c-2.11,0.66-1.16,2.81-1.22,4.3c-0.17,4.42,0.03,8.4,3.45,12.28
		c3.92,4.45,1.94,10.63,0.99,15.78c-0.57,3.09-5.56,4.57-7.44,1.77c-3.97-5.93-9.75-5.61-16.43-6.22c3.12-3.12,8.26-6.51-0.15-7.77
		c-0.22-0.03-0.58-0.36-0.57-0.54c0.79-13.01-9.51-7.23-14.77-7.78c-5.22-0.55-5.47-2.02-3.46-6.25c-1.74,0.18-2.81-0.04-3.23,0.38
		c-6.59,6.53-16.52,5.94-23.75,11.37c-4.1,3.08-7.95-1.59-9.38-3.93c-2.85-4.66-5.74-5.59-10.78-4.89c-4.27,0.59-6.18-4.17-8.56-6.7
		c-2.15-2.29,2.9-2.78,4-4.64c-3.39-2.95-9.91,1.63-11.34-6.05c-0.37-1.98-5.84,1.1-8.39,2.85c-4.4,3.02-8.05,5.61-7.27-3.32
		c-4.32,1.35-6.88,3.94-8.39,7.22c-1.81,3.92-4.49,5.26-8.61,4.78c-2.97-0.35-5.36,0.63-6.79,3.66c-1.73,3.65,0.85,3.53,3.07,4.83
		c2.64,1.55-0.3,3.29-1.31,4.56c-4.58,5.77-3.71,11.66-1.31,17.66c1.83,0.01,2.5-0.62,2.93-1.82c1.05-2.92,0.31-8.03,4.62-7.66
		c4.73,0.4,1.21,4.86,1.74,7.42c0.89,4.25,5.46,7.32,3.84,12.35c-0.66,2.05-0.66,5.1-2.97,5.37c-3.05,0.37-2.43-2.61-2.99-4.75
		c-1.74-6.6-7.97-7.47-13.25-9.08c-5.46-1.66-12.37,2.94-16.73-4.79c-1.05-1.86-6.05,1.16-9.23,2.02c-2.27,0.61-4.88,3-6.99,1.06
		c-2.32-2.14,0.41-4.54,1.1-6.77c1.45-4.66,3.09-9.27,5.02-15.01c-7.49,3.01-11.71,8.21-16.74,12.28c-2.98,2.42-5.79,3.64-6.77-1.77
		c-0.9-4.98-2.91-4.58-5.84-1.36c-2.93,3.21-3.96,8.52-10.68,7.47c-2.6-0.41-1.86,4.62-2.14,7.21c-1.07,9.87-2.06,10.57-10.35,5.74
		c-25.94-15.12-51.61-30.63-74.23-50.68c-3.86-3.42-8.36-6.26-12.23-9.79c0.45-0.4,0.91-0.8,1.36-1.19c1.37-0.03,2.74-0.05,4.1-0.08
		c14.52,0.66,29.06,0.96,43.59-0.09c3.27,0,6.54,0,9.8,0c9.96,0.2,19.93,0.59,29.9,0.55c29.68-0.1,59.37-0.36,89.05-0.56
		c8.33,0,16.67,0,24.98,0c4.95,0.92,9.92,0.86,14.88-0.04c3.89,0.01,7.79,0.03,11.67,0.04
		C848.24,1351.64,864.5,1351.67,880.76,1350.61z"/>
	<path class="st2" d="M1563.71,1132.74c-7.79,3.55-10.51,11.67-18.2,7.75c-0.24-0.12-1.61,1.41-2.04,2.35
		c-0.6,1.35,0.53,1.94,1.62,2.25c3.69,1.05,7.39,2.04,10.46,2.88c-4.97,13.15-9.6,26.27-8.87,40.76c0.82,16.11,1.1,32.26,1.92,48.37
		c0.26,5.03-1.82,6.3-6.32,6.01c-4.16-0.27-8.36-0.18-12.53,0c-6.2,0.26-12.62,1.08-11.77-8.42c-5.24,0.91-0.6,7.56-6.48,8.46
		c-11.39,1.74-14.19-0.08-13.61-11.37c1.89-36.47,0.57-72.94,0.04-109.41c-0.17-11.42-0.48-11.42,10.56-12.15
		c8.06-0.54,16.15-0.73,24.15-1.73c6.03-0.76,10.2-0.32,8.87,7.32c3.21,0.09,2.4-3.66,5.45-4.22c0,4.77,0,9.33,0,15.07
		c8.51-5.84,16.24-10.62,23.35-16.19c6.36-4.98,11.37-5.05,14.7,0.29c-8.26,15.25-8.35,31.35-12.12,46.48
		c0.88,0.27,1.76,0.54,2.65,0.81c2.1-7.47,4.21-14.95,6.31-22.42c0.99-3.52,1.02-3.41,5.75-5.06c2.23-0.78,0.46-2.61,0.56-3.96
		c0.3-4-7.28-11,4.37-10.78c2.83,0.05-1.93-9.84,5.8-5.95c3.4,1.71,6.79,4.27,9.02,7.3c6.21,8.44,11.79,8.13,19.03,0.95
		c7.53-7.47,18.46-8.4,27.96-11.97c5.67-2.13,16.85,3.43,20.08,9.07c2.91,5.06,5.72,10.08,9.77,14.46
		c2.97,3.21,4.19,7.54,4.18,12.27c-0.12,31.47-0.12,62.95,0.09,94.42c0.03,5.06-1.46,7.02-6.63,6.82
		c-8.34-0.32-16.71-0.03-25.06-0.16c-4.04-0.06-7.52-0.71-4.08-6.12c2.23-3.51-0.31-7.01-0.78-10.47
		c-0.84-6.12-1.42-12.09,2.44-17.46c0.88-1.22,1.82-3.2,0.52-3.49c-8.56-1.89-2.84-6.87-2.7-10.77c0.41-10.83,1.29-21.8-1.36-32.37
		c-1.18-4.72-3.18-10.6-11.27-7.73c-4.34,1.54-7.78-3.59-12.18-4.6c-5.55-1.28-8.69-0.95-9.45,5.95
		c-1.99,18.11-0.38,36.15,0.04,54.22c0.21,8.91,0.32,17.83,0.89,26.71c0.31,4.84-1.57,6.25-6.15,6.18
		c-12.81-0.18-25.62-0.13-38.43,0.04c-4.19,0.06-6-1.21-5.81-5.72c0.52-12.24-0.14-24.58,1.27-36.7c0.8-6.87,5.36-13,4.59-20.72
		c-0.6-6-0.83-11.25-4.83-16.59C1563.25,1155.11,1557.02,1146.07,1563.71,1132.74z"/>
	<path class="st2" d="M1216.89,1181.39c1.05,14.45,0.71,28.92,0.38,43.38c-0.06,2.77-0.29,5.58,0.08,8.31
		c0.4,3.05,4.18,6.98,0.1,8.78c-3.48,1.54-8.31,0.99-12.29,0.17c-3.32-0.68-0.41-5.15-3.36-7.83c-8.15,5.65-17.1,9.71-27.92,8.34
		c-5.29-0.67-7.77-2.04-7.01-7.5c1.51-10.73,2.97-21.47,4.52-32.2c0.29-2.04,1.33-4.22,3.57-3.95c7.02,0.86,5.41-3.95,5.81-7.89
		c0.56-5.64-3.1-5.54-6.8-5.46c-3.24,0.07-4.92-1.61-4.35-4.55c0.76-3.92-3.13-9.98,2.66-11.36c4-0.96,3.54-2.77,3.32-4.92
		c-0.44-4.41-0.87-8.92-2.16-13.13c-5.3-17.25-6.04-34.89-6.18-52.78c-0.1-12.73,3.75-24.67,5.13-37.06
		c0.46-4.13,3.53-4.54,6.72-4.54c31.45,0.06,62.9,0.36,94.34,0.09c6.66-0.06,8.35,3.11,8.07,8.4c-0.41,7.76-1.4,15.48-1.99,23.23
		c-0.42,5.59-3.62,7.52-8.75,9.34c-14.83,5.28-30.03,3.67-45.13,3.71c-5.29,0.02-7.52,1.39-7.09,7.02
		c0.47,6.09,0.38,12.26,0.02,18.36c-0.3,5.04,1.39,6.81,6.55,6.75c11.91-0.13,23.77-0.22,35.7,1.58c6.99,1.05,9.16,3.48,8.32,9.92
		c-0.58,4.41-0.94,8.85-1.4,13.26c-0.65,3.65-1.79,7.29-0.74,11.07c-0.21,1.61-0.42,3.23-0.63,4.83c-1.96,3.52-5.39,3.41-8.71,3.42
		c-9.11,0.04-18.23-0.16-27.34,0.08c-6.46,0.17-12.69,0.53-13.71-8.77C1215.1,1174.05,1216.05,1177.72,1216.89,1181.39z
		 M1239.66,1088.64c2.31,1.07-0.8,6.86,4.31,6.03c8.16-1.33,16.2-3.42,24.26-5.33c1.2-0.28,2.97-0.84,2.62-2.6
		c-0.18-0.87-1.28-1.83-2.19-2.22c-5.11-2.18-10.26-4.26-15.45-6.25C1246.34,1075.64,1239.33,1080.71,1239.66,1088.64z
		 M1182.39,1081.12c-3.94,3.58-4.54,6.39-4.19,9.55c0.63,5.8,1.16,11.61,1.98,17.39c0.27,1.93-0.7,5.35,2.51,5.2
		c3.13-0.15,4.59-2.93,4.09-6.08C1185.49,1099.01,1184.04,1090.88,1182.39,1081.12z"/>
	<path class="st2" d="M694.62,1217c4.69-4.48,7.9-7.48,11.01-10.56c1.58-1.56,3.28-2.08,5.26-1.06c1.66,0.86,2.37,2.45,2.12,4.19
		c-1.13,7.8-0.45,16.42-9.3,20.84c-3.6,1.8-5.83,5.12-8.25,8.15c-4.76,5.97-9.65,6.63-15.56,1.39c-4.98-4.42-10.7-8.02-15.57-12.54
		c-2.74-2.54-4.51-2.19-7.09-0.3c-6.5,4.77-13.38,9.05-19.59,14.16c-4.41,3.63-8.9,3.8-12.98,1.06c-5.66-3.79-12.04-5.59-18.11-8.26
		c-6.55-2.88-10.65-7.61-11.45-15.07c-0.74-6.9-1.66-13.78-3.66-20.51c-1.61-5.43,0.75-9.66,3.66-14.55
		c9.62-16.18,23.76-22.89,41.91-23.43c4.86-0.15,12.63-11.6,11.95-16.17c-0.39-2.61-2.19-2.18-3.69-1.82
		c-10.49,2.48-21.69,2.57-31.16,8.5c-6.16,3.85-8.88,2-9.62-4.65c-0.06-0.55-0.18-1.1-0.3-1.64c-4.43-20.59-3.59-22.99,12.84-35.94
		c1.05-0.83,2.57-2.01,3.6-1.79c13,2.82,24.13-6.04,37.21-5.24c14.68,0.89,25.4,9.13,37.32,15.24c4.47,2.29,4.07,8.25,4.95,12.82
		c3.75,19.47,5.22,39.04,2.82,58.86C701.81,1197.86,697.84,1206.12,694.62,1217z M646.17,1200.3c0.64,0.11,1.27,0.22,1.91,0.32
		c1.93-3.58,4.01-7.09,5.74-10.76c0.84-1.78,3.42-3.97,1.09-5.69c-1.45-1.07-4.24-0.58-6.39-0.38c-2.75,0.25-2.32,2.59-2.34,4.45
		C646.14,1192.26,646.17,1196.28,646.17,1200.3z"/>
	<path class="st2" d="M387.38,1121.26c1.84-2.56,4.81,0.87,7.5-1.9c-3.42-2.46-6.68-4.79-9.93-7.14c-1.4-1.01-2.63-2.17-1.92-4.12
		c0.59-1.63,2.19-1.52,3.5-1.64c9.14-0.84,18.3-1.53,27.43-2.46c3.68-0.38,4.94,1.01,4.91,4.62c-0.09,11.69-0.06,23.39,0.12,35.08
		c0.06,3.64-1.35,5.8-4.81,6.71c-3.49,0.92-7.07,1.6-10.43,2.87c-2.33,0.88-6.84-0.85-6.62,3c0.16,2.86,4.42,2.99,7.03,3.12
		c4.47,0.22,8.25,5.22,13.22,1.57c0.79,7.17,1.81,14.03,2.22,20.94c0.26,4.48,2.35,5.49,6.38,5.45
		c11.68-0.12,12.65-1.12,14.54-12.79c0.65-4,1.93-7.42,0.22-11.75c-1.19-3.01,0.42-6.97,3.63-9.48c2.85-2.23,5.08-5.02,6.08-8.5
		c-1.94-1.4-3.56-0.96-5.1-0.3c-4.61,1.97-5.1-0.64-5.06-4.28c0.09-8.91,0.18-17.82-0.04-26.73c-0.11-4.17,1.23-5.89,5.58-6.19
		c11.93-0.83,23.84-1.93,35.72-3.28c5.33-0.61,8.3,0.82,7.04,6.5c-1.33,5.95,3.28,14.41-7.3,16.91c-1.74,0.41-2.28,6.53,1.46,7.31
		c5.53,1.15,4.41,4.39,4.3,8c-0.49,16.13-0.68,32.27-1.29,48.39c-0.2,5.41,1.3,9.29,6.63,11.04c2.69,0.88,4.67,2.5,4.3,5.35
		c-1.27,9.78-0.85,20.04-8.26,28.14c-1.81,1.98-3.52,4.06-6.09,3.55c-3.59-0.71-1.68-4.06-2.1-6.27c-0.3-1.57-0.37-3.19-0.62-5.55
		c-3.61,2.25-2.62,4.97-2.11,7.4c0.53,2.53,1.41,5.65-1.89,6.19c-3.81,0.62-1.69-3.1-2.43-4.81c-0.4-0.93-1.05-1.75-1.61-2.65
		c-3.6,2.25,0.81,8.07-4.6,8.85c-5.1,0.73-7.57-3.21-9.8-6.55c-3.54-5.33-9.92-8.09-12.27-14.53c-1.23-3.36-3.57-1.22-5.26,0.2
		c-5.54,4.65-10.94,9.47-16.6,13.97c-7.26,5.77-14.83,8.21-23.47,2.19c-4.34-3.02-9.66-4.15-14.77-5.51
		c-6.61-1.76-10.05-5.98-8.68-12.95c1.48-7.48,0.01-15.02,0.98-22.48c0.09-0.71,0.45-1.93,0.22-2.06
		c-13.57-7.39-4.29-18.13-3.77-27.4c0.16-2.91,1.84-5.82,0.68-8.87c-5.78-15.13-2.17-30.89-3.15-46.35
		c-0.11-1.81-0.76-4.79,2.96-4.75c2.79,0.03,5.63-0.47,6.86,3.07c1.63,4.7,3.39,9.36,5.08,14.03c1.19,5.17,3.59,9.5,8.1,12.4
		C392.89,1131.06,387.38,1127.43,387.38,1121.26z"/>
	<path class="st2" d="M1382.56,1215.04c2.78-2.7,5.62-5.35,8.31-8.14c1.44-1.5,2.85-2.74,5.04-1.82c2.13,0.9,2.66,2.77,2.42,4.83
		c-0.95,8.25-1.02,16.73-10.18,21.35c-3.04,1.53-5.3,4.83-7.57,7.61c-4.58,5.61-9.26,6.44-14.91,1.42
		c-4.36-3.87-9.44-6.97-13.56-11.05c-4.21-4.16-7.5-4.15-12-0.44c-5.35,4.41-11.62,7.72-16.93,12.18
		c-4.66,3.92-8.98,3.52-13.78,1.01c-0.74-0.39-1.44-0.98-2.22-1.14c-23.66-4.68-28.77-22.56-30.53-42.83
		c-0.12-1.37-0.45-2.74-0.41-4.1c0.21-7.61,18.66-28.68,26.16-29.92c4.12-0.68,8.24-1.33,12.36-1.97c14.02-2.16,16.13-4.21,19.69-20
		c-12.28,2.28-24.66,2.89-35.35,9.13c-6.51,3.8-7.69,1.23-9.12-4.43c-5.53-21.91-5.25-23.16,12.2-37.78
		c1.02-0.86,2.56-1.99,3.62-1.78c13.23,2.62,24.56-6.49,37.98-5.36c14.53,1.22,25.16,9.34,36.95,15.68c2.66,1.43,3.41,4.7,4.04,7.88
		c5.84,29.85,8.16,59.52-3.53,88.66c-1.56,0.79-1.68,2.25-1.75,3.74c-1.66,1.02-1.94,2.65-1.93,4.41c-2.6,1.63-4.21,3.91-4.59,7
		c-0.42,0.49-0.85,0.98-1.24,1.5c-0.02,0.03,0.32,0.33,0.49,0.5c0.32-0.61,0.65-1.23,0.97-1.84c2.82-1.47,4.01-4.04,4.73-6.94
		c1.92-0.75,2.48-2.44,2.91-4.22C1381.43,1217.13,1382,1216.09,1382.56,1215.04z M1331.75,1200.67c0.52,0.07,1.04,0.14,1.57,0.21
		c2.01-3.6,4.24-7.09,5.92-10.83c0.8-1.79,3.37-3.93,1.18-5.85c-1.15-1-3.67-0.57-5.57-0.55c-3.26,0.03-3.11,2.45-3.1,4.74
		C1331.77,1192.48,1331.75,1196.57,1331.75,1200.67z"/>
	<path class="st2" d="M306.31,1127.54c5.45,10.02,6.56,21.51,12.33,32.48c2.78-10.94,0.78-20.02-3.07-28.71
		c-2.62-5.92-2.89-10.72,2.22-15.72c2.92-2.85,7.87-7.53-2.44-8.4c-3.93-0.33-7.56-5.27-11.14-8.32c-2.64-2.25-4.95-4.58-8.63-1.74
		c-3.39,2.62-4.56-1.78-6.7-2.3c-13.14-3.23-9.06-13.25-8.9-21.57c0.28-14.73,0.43-14.73,14.82-14.7c3.34,0.01,6.69,0.05,10.03,0
		c7.99-0.13,16.46-1.64,21.02,8.93c0.12-9.05,5.11-9.61,11.12-8.85c3.02,0.38,6.33,1.35,9.08,0.55
		c11.68-3.38,10.69,4.01,10.52,11.42c-0.77,33.12-0.96,66.26-2.33,99.35c-0.36,8.86,0.14,18.86-7.72,25.94
		c-1.68,1.51-0.74,3.62-0.49,5.54c0.97,7.45,1.52,14.96,2.86,22.34c1.84,10.16-2.47,17.16-8.48,25.19
		c-9.3,12.42-22.15,17.78-35.23,23.66c-8.55,3.84-10.52,3.49-13.91-4.89c-2.9-7.16-9.84-14.19-7.97-21.34
		c1.76-6.72,11.03-9.49,16.58-14.47c6.94-6.23,14.87-11.45,21.36-20.54c-7.88,2.75-11.52,9.26-17.83,12.07
		C307.75,1191.33,302.8,1159.43,306.31,1127.54z"/>
	<path class="st2" d="M722,1239.31c-2.88-0.66-3.13-2.77-2.84-5.16c0.82-6.9,0.39-14.31,2.91-20.52c1.8-4.44,3.08-8.01,2.39-12.8
		c-0.35-2.41,1.62-5.53,4.53-6.38c2.83-0.82,4.17,1.96,4.58,3.85c2.73,12.56,13.37,10.92,22.1,12.46c3.23,0.57,6.66,0.14,9.98-0.06
		c2.58-0.15,6.24,1.26,7.09-2.39c0.67-2.86-1.86-5.15-4.06-6.81c-5.58-4.22-12.01-6.91-18.34-9.76
		c-9.42-4.25-14.95-11.05-19.98-20.66c-7.52-14.37-9.1-25.6-0.72-40.56c5.71-10.19,11.42-15.72,21.96-20.97
		c20.57-10.25,39.55-3.47,59.25-0.31c2.24,0.36,4.54,0.95,4.64,3.86c0.42,11.93,0.82,24.02-5.72,34.6
		c-3.21,5.18-8.41,3.83-11.98-0.01c-8.62-9.28-19.59-7.92-30.16-6.66c-7.61,0.9-3.38,7.46-3.54,11.55
		c-0.18,4.87,3.41,2.98,5.95,2.58c1.88-0.3,4.13-1.56,5.57-0.93c12.99,5.69,27.33,9.15,34.95,23.34c3.83,7.12,0.85,14.87,3.83,21.91
		c4.21,9.96,0.96,17.83-7.65,23.84c-0.68,0.48-1.44,0.97-1.87,1.65c-15.52,24.33-39.05,21.01-62.44,18.12
		c0.22-1.7,0.44-3.4,0.65-5.11c2.01-1.09,3.82-2.34,3.84-4.97c1.91-0.42,2.77-1.63,2.52-3.53c-0.05-0.39-0.7-1.05-0.97-1
		c-1.92,0.35-2.57,1.81-2.8,3.55c-1.74,1.35-2.73,3.18-3.27,5.27c-3.63,4.07-8.09,5.36-13.34,3.97c-1.42-0.32-2.85-0.64-4.26-0.95
		C724.27,1238.84,723.2,1238.87,722,1239.31z"/>
	<path class="st2" d="M825.75,1239.36c-1.62-0.7-3.31-1.83-2.91-3.61c2.01-9-1.97-19.48,6.61-26.87c1.99-1.72-0.66-1.96-1.08-2.89
		c-2.12-4.67-0.02-8.87,3.45-10.81c4.59-2.58,5.55,2.92,6.31,5.44c3.46,11.48,13.71,8.03,21.32,10.09c3.1,0.84,6.65,0.16,9.98-0.02
		c2.56-0.14,6.12,1.52,7.13-2.23c0.84-3.13-2.12-5-4.16-6.73c-4.92-4.18-10.87-6.62-16.71-9.21c-10.19-4.51-16.65-11.34-22.02-22.02
		c-7.19-14.31-8.33-25.24-0.48-39.84c5.73-10.66,11.87-16.02,22.73-21.34c20.77-10.18,39.65-2.67,59.34,0.18
		c2.03,0.29,3.98,1.03,4.01,3.47c0.13,11.88,0.67,24.05-5.7,34.62c-2.87,4.75-8.2,4.48-12.05,0.27c-8.56-9.36-19.6-7.97-30.24-6.84
		c-6.91,0.74-3.68,6.82-3.74,10.81c-0.08,4.84,3.11,4.59,6.23,3.24c4.06-1.76,7.34-1.05,10.81,1.63c2.46,1.9,5.33,2.87,8.84,3.31
		c10.94,1.38,23.1,16.5,23.01,27.8c-0.04,5.41,1.12,10.49,2.69,15.54c2.07,6.64,0.15,12.03-4.8,16.55
		c-2.26,2.06-5.34,3.55-6.88,6.02c-14.55,23.26-36.88,19.61-58.83,17.38c-2.31-0.88-4.09-1.72-1.48-4.5
		c2.71-2.89,5.75-5.79,5.7-11.21c-6.95,4.87-7.76,16.89-19.11,13.98c-1.77-0.41-3.55-0.82-5.31-1.22
		C827.83,1239.19,826.91,1238.96,825.75,1239.36z"/>
	<path class="st2" d="M1046.06,1226.21c-5.18-2.09-8.76,2.01-12.49,4.01c-1.59,0.85,0.95,4.97,2.17,7.46
		c1.12,2.28,2.3,2.49,4.39,0.94c1.56-1.16,2.98-3.85,5.59-1.84c0.96,0.74,0.96,1.96,0.34,3.01c-1.37,2.34-2.23,5.62-5.74,5.19
		c-3.84-0.47-8.06-0.78-11.31-2.6c-9.3-5.21-19-10.81-23.42-20.92c-3.03-6.94-6.96-13.51-8.82-21.16
		c-2.04-8.38-0.88-15.18,4.26-21.86c1.7-2.21,5.72-4.38,3.68-7.57c-2.38-3.7-6.05,0.59-9.79-0.03c-0.3-10.83,0.02-21.46,6.94-30.76
		c1.16-1.56,2.18-3.25,3.06-4.98c13.67-26.69,37.55-32.01,64.55-31.03c7.08,0.26,10.73,2.94,9.35,10.52
		c-0.23,1.25,0.16,2.61,0.28,4.12c4.61-1.03,3.91-7.18,8.85-7.61c3.26,8.97-1.08,17.25-2.43,25.76c-0.09,0.54-0.35,1.54-0.44,1.53
		c-10.56-1.18-5.69,7.23-6.83,11.51c-0.86,3.21-1.9,3.88-5.04,3.6c-9.49-0.83-17.95,3.06-26.33,6.69
		c-5.76,2.49-7.17,7.91-5.87,13.33c1.74,7.26,4.79,14.2,6.84,21.41c1.48,5.22,4.59,7.14,9.76,6.69c4.99-0.44,10-0.67,15-0.96
		c1.66-0.1,4.46-0.71,4.81-0.05c4.13,7.63,5.45,0.13,8.5-2.75c3.54,12.38-1.37,22.82-2.28,34.02c-7.85-3.44-15.3-6.91-22.92-9.93
		c-2.54-1.01-5.53-4.55-8.17-1.15c-2.27,2.92-4.64,6.42-3.27,10.72c0.42,1.32,0.84,2.64,1.27,3.96c-0.4,0.33-0.81,0.66-1.22,0.98
		c-3.17-2.9-5.27-6.13-3.19-10.59c-0.13-0.05-0.25-0.11-0.37-0.18C1045.87,1225.86,1045.97,1226.03,1046.06,1226.21z"/>
	<path class="st2" d="M946.48,1156.65c-5.7,0.26-5.52,8.7-9.65,6.27c-3.75-2.2-1.72-8.18-1.82-12.47
		c-0.25-10.56-0.09-21.13-0.09-31.7c0-2.62-2.1-6.45,1.07-7.46c3.66-1.18,8.24-2.46,11.86,0.37c1.87,1.46,2.83,4.76,3.47-0.51
		c0.43-3.53,3.44-2.08,5.32-2.18c7.13-0.36,14.27,0.5,21.43-0.85c5.22-0.99,7.35,1.06,7.03,7.19c-1,19.41-1.1,38.87-1.66,58.31
		c-0.05,1.7,1.11,4.14-1.54,4.98c-2.26,0.71-3.74-0.84-4.7-2.56c-0.95-1.71-1.94-2.83-3.76-1.41c-1.75,1.37-2.33,3.1-0.52,4.95
		c1.94,1.98,3.89,3.94,5.84,5.91c0.97,0.98,2.95,2.57,2.78,2.86c-5.11,8.41,3.58,14.88,3.07,22.74c-0.54,8.29-0.1,16.68,0.45,24.99
		c0.36,5.38-1.23,7.25-6.82,7.08c-12.78-0.4-25.58-0.26-38.37-0.08c-4.92,0.07-7.22-1.32-6.35-6.71c3.3-20.44,1.72-41.06,2.02-61.6
		c0.06-4.16-0.07-7.44,5.31-8.55C945.25,1165.3,945.76,1161.03,946.48,1156.65z M979.94,1156.56c-0.67-0.58-1.63-1.5-2.69-2.29
		c-5.55-4.15-11.09-8.33-16.72-12.38c-1.61-1.16-3.43-3.85-5.53-1.06c-1.47,1.95-2.72,4.89-0.59,6.91
		c5.22,4.95,10.59,9.81,16.39,14.06C973.44,1163.77,980.22,1159.85,979.94,1156.56z"/>
	<path class="st2" d="M1269.34,588.87c0.45,5.87-1.92,10.69-5.97,14.89c-6.42,6.67-13.84,12.12-21.73,16.79
		c-6.94,4.11-13.74,3.35-19.83-2.42c-10.28-9.74-17.29-22.41-28.52-31.38c-3.62-2.89-2.59-7.21,1.09-10.08
		c11.79-9.19,12.12-20.14,5.74-32.61c-4.34-8.48-3.89-17.92-3.64-27.05c0.2-7.45,9.37-10.12,15.87-4.79
		c2.54,2.08,4.78,4.75,6.5,7.55c11.3,18.42,26.35,33.7,40.86,49.45C1264.82,574.78,1269.94,580.39,1269.34,588.87z"/>
	<path class="st2" d="M553.81,1130.02c3.75-5.03,7.49-10.07,11.27-15.07c5.58-7.39,13.76-7.58,21.91-7.81
		c2.49-0.07,3.11,1.39,3.47,3.63c1.08,6.75-0.65,12.35-4.97,17.77c-14.1,17.68-31.6,31.67-48.79,46.02
		c-10.2,8.51-20.46,16.96-30.58,25.34c-2.97-1.13-1.93-3.43-1.93-5.09c-0.08-25.89,0.1-51.79-0.16-77.68
		c-0.06-5.33,1.54-7.34,6.84-7.67c11.94-0.75,23.86-1.82,35.75-3.14c4.79-0.53,5.78,1.47,5.64,5.61c-0.2,5.8-0.05,11.61-0.05,17.42
		C552.74,1129.58,553.28,1129.8,553.81,1130.02z"/>
	<path class="st2" d="M1456.82,1130.11c2.68-3.86,5.5-7.63,8.02-11.59c5.54-8.69,13.66-11.56,23.54-11.34
		c3.6,0.08,4.79,1.28,5.03,4.79c0.4,5.76-0.59,10.61-4.31,15.48c-16.93,22.16-39.84,37.78-60.36,56.01
		c-5.18,4.6-10.59,8.96-16,13.29c-1.22,0.98-3.09,2.16-4.32,1.86c-1.78-0.43-1.48-2.72-1.48-4.35c0-26.15,0.16-52.29-0.06-78.44
		c-0.04-5.19,2.85-5.95,6.61-6.31c12.17-1.16,24.36-2.18,36.52-3.4c3.71-0.37,5.01,1.12,4.94,4.66c-0.12,6.28-0.03,12.57-0.03,18.86
		C1455.55,1129.79,1456.19,1129.95,1456.82,1130.11z"/>
	<path class="st2" d="M1164.14,517.15c0,4.23-0.06,8.64-2.17,12.23c-7.02,11.96-14.2,23.94-24.03,33.83
		c-7.33,7.37-17.84,7-24.63,0.17c-7.41-7.45-7.8-18.14-1.11-25.88c4.24-4.91,9.44-8.46,14.93-11.82c8.23-5.02,9.63-10.25,5.61-19.07
		c-3.56-7.81-8.73-14.85-10.75-23.43c-1.52-6.47-1.06-12.14,4.46-16.6c5.61-4.54,11.93-5.73,18.82-3.87
		c2.5,0.68,4.54,2.29,5.51,4.75C1157.1,483.53,1163.02,499.7,1164.14,517.15z"/>
	<path class="st2" d="M1454.56,1171.27c1.14,22.87,2.04,44.11,1.79,65.41c-0.05,4.2-1.62,5.81-5.97,5.73
		c-12.78-0.22-25.57-0.21-38.35,0.04c-4.38,0.08-5.22-1.56-5.81-5.71c-2.24-15.72,7.66-26.09,16.05-36.74
		C1430.86,1189.07,1442.18,1180.78,1454.56,1171.27z"/>
	<path class="st2" d="M551.83,1171.61c1.13,22.51,1.96,43.54,1.81,64.62c-0.03,4.73-2.08,6.25-6.59,6.19
		c-12.81-0.18-25.63-0.05-38.44-0.12c-1.78-0.01-4.55,0.74-4.68-2.06c-0.29-6.33-2.21-13.29,0.84-18.91
		C515.73,1201.16,531.84,1185.6,551.83,1171.61z"/>
	<path class="st2" d="M970.56,1036.71c12.61,8.11,17.83,27.3,11.78,38.26c-1.57,2.85-4.78,1.14-6.1,3.51
		c-4.19,7.55-4.25,7.44-12.69,11.41c-4.4,2.07-8.93,1.2-13.4,1.06c-1.51-0.05-3.03-1.27-4.45-2.13
		c-2.41-1.47-12.3-28.22-11.58-30.88c0.63-2.33,2.32-3.77,4.15-5.02c5.12-3.5,9.38-7.92,12.71-13.02c3.37-5.16,7.98-5.27,13.1-4.68
		c4.6,0.53,5.5,2.41,1.76,5.48c-2.09,1.71-4.07,3.29-1.93,6.09c1.31,1.72,3.06,4.18,5.27,3.24c2.77-1.19,1.04-4.38,1.33-6.67
		C970.75,1041.51,970.56,1039.6,970.56,1036.71z"/>
	<path class="st2" d="M670.57,915.03c5.83,2.17,9.27,5.92,13.01,9.11c6.58,5.63,13.44,10.58,21.45,14.1
		c11.25,4.95,16.79,15.78,15.35,27.8c-0.42,3.52-2.34,3.87-5.07,3.86c-10-0.04-20,0.06-30-0.08c-3.09-0.04-6.32-0.73-7.63-4.07
		C671.31,949.57,668.81,932.88,670.57,915.03z"/>
	<path class="st2" d="M640.75,969.91c-3.05,0-6.11,0-9.16,0c-11.72-0.01-12.47-0.65-13.82-12.14c-1.11-9.5,0.5-18.82,1.98-28.13
		c1.01-6.35,7.17-7.29,11.35-10.08c12.37-8.24,12.52-8.09,15.66,5.83c2.82,12.48,7.29,24.45,12.05,36.24
		c3.07,7.61,0.53,9.06-6.42,8.39c-3.85-0.37-7.76-0.07-11.65-0.07C640.75,969.93,640.75,969.92,640.75,969.91z"/>
	<path class="st2" d="M1304.54,637.14c-12.79,0.34-23.68-2.73-34.43-6.59c-5.54-1.98-5.85-5.28-2.64-9.52
		c10.15-13.41,39.7-11.74,48.23,2.74c1.86,3.16,3.72,7.03,1.51,10.21C1313.87,638.77,1308.11,636.67,1304.54,637.14z"/>
	<path class="st2" d="M837.1,1428.67c5.36-4.44,10.43-4.27,15.32,0.42c3.39,3.25,2.28,7.13,1.89,10.91
		c-0.18,1.72-1.09,3.2-3.21,3.06c-1.5-0.11-2.86-0.85-2.83-2.45c0.12-6.97-4.54-3.64-7.46-3.37c-3.91,0.35-7.68,3.82-9.59-3.92
		c-1.1-4.48-8.36-2.87-11.69-0.35c-5.76,4.37-11.12,1.52-16.61,0.7c-4.25-0.64-3.65-4.43-3.48-7.32c0.18-2.93-1.48-7.17,1.29-8.48
		c2.62-1.24,6.33,0.16,8.63,3.19c1.38,1.83,2.54,5.09,5.67,3.67c3.34-1.51,1-4.38,0.6-6.57c-0.92-5.08,5.47-6.84,5.14-11.72
		c-0.06-0.89,1.86-0.69,2.81-0.01c2.13,1.53,3.76,3.69,3.54,6.23c-0.24,2.86-1.4,5.65-2.34,9.14c5.69-0.37,8.04-4.86,11.95-6.46
		c1.27-0.52,2.55-1.68,3.51-0.04c0.4,0.68,0.06,2.14-0.43,2.95C837.98,1421.26,835.4,1423.97,837.1,1428.67z"/>
	<path class="st2" d="M736.32,842.45c6.33-3.28,4.67-8.43,9-10.42c1.73,8.53-0.53,16.75-0.56,26.87
		c-12.56-9.82-24.3-18.1-30.06-33.73c6.31,1.27,8.55,6.87,14.7,8.06c-1.93-12.51-13.74-20.33-14.53-34.02
		C728.44,810.87,741.96,820.92,736.32,842.45z"/>
	<path class="st2" d="M748.9,931.91c-24.64-14.39-28.16-20.83-25.53-46.69c8.26,7.41,16.2,14.08,23.57,21.34
		c3.99,3.92,1.48,9.56,1.9,14.41C749.13,924.2,748.9,927.49,748.9,931.91z"/>
	<path class="st2" d="M595.3,922.23c3.16,15.69,4.01,30.49,9.4,44.29c0.54,1.38,0.49,3-1.34,3.23c-3.18,0.4-7.02,2.12-9.29-1.27
		c-5.71-8.53-11.16-17.25-16.37-26.1c-1.12-1.9-1.7-5.98,1.88-5.88C588.79,936.77,590.27,928.92,595.3,922.23z"/>
	<path class="st0" d="M1358.94,1350.58c-2.2,0.2-4.4,0.58-6.6,0.59c-84.32,0.05-168.64,0.07-252.96,0.05c-2.2,0-4.4-0.39-6.59-0.6
		c2.48-0.25,4.94-0.72,7.4-0.72c83.78-0.03,167.55-0.02,251.33,0.03C1354,1349.93,1356.47,1350.36,1358.94,1350.58z"/>
	<path class="st2" d="M556,970.02c-4.55-0.95-10.61,2.3-13.13-2.85c-2.76-5.64,1.63-10.53,4.95-14.91c4.96-6.54,7.08-6.4,11.63,0.29
		c1.09,1.6,2.36,3.16,3.08,4.93c1.53,3.78,6.77,7.12,4.81,10.88C565.29,972.28,559.76,968.99,556,970.02z"/>
	<path class="st2" d="M707.85,894.45c-8.93-2.18-14.37-7.35-17.29-14.23c-3.07-7.22,4.84-8.29,8.6-10.56
		c4.16-2.51,5.52,1.95,6.06,5.27C706.22,881.13,706.91,887.38,707.85,894.45z"/>
	<path class="st2" d="M1050.54,1235.47c12.98-3.29,23.53-5.16,30.72,6.05c-9.78,5.99-20.41,2.06-30.43,2.43
		c-4.35,0.16-1.46-4.8-1.51-7.5C1049.74,1236.13,1050.14,1235.81,1050.54,1235.47z"/>
	<path class="st2" d="M762.85,931.39c1.5-3.26-2.43-10.06,2-10.96c4.42-0.9,5.91,6.26,8.53,9.92c2.92,4.07-2.99,14.62-8.02,14.95
		c-2.46,0.16-2.47-1.67-2.49-3.32C762.82,938.68,762.85,935.37,762.85,931.39z"/>
	<path class="st2" d="M751.11,969.36c-8.18,0.93-15.38,1.81-19.94-5.69c-1.22-2.01-2.6-4.69-0.75-6.97c2.18-2.7,4.73-0.6,6.63,0.56
		C742.14,960.36,746.99,963.86,751.11,969.36z"/>
	<path class="st0" d="M780.46,1350.66c-29.68,0.2-59.37,0.46-89.05,0.56c-9.97,0.03-19.94-0.36-29.9-0.55
		c14.39-1.7,28.83-0.7,43.23-0.66C729.98,1350.07,755.24,1349.01,780.46,1350.66z"/>
	<path class="st0" d="M1064.6,1350.64c-32.98,0.21-65.96,0.42-98.94,0.59c-2.19,0.01-4.39-0.37-6.57-0.56
		c17.99-1.61,36.02-0.68,54.01-0.66C1030.26,1350.02,1047.45,1348.96,1064.6,1350.64z"/>
	<path class="st2" d="M787.28,1436.65c-0.34,4.87-4.79,6.31-8.93,7.38c-2.37,0.61-6.15-1.14-5.12-3.66
		c1.61-3.92,4.44-8.28,7.97-10.19C784.36,1428.46,786.96,1432.05,787.28,1436.65z"/>
	<path class="st2" d="M1072.97,1430.57c5.56,4.65,10.3,6.18,15.66,6.12c3.99-0.04,5.42,3.67,4.99,6.37
		c-0.71,4.53-4.47,1.97-6.6,1.21C1081.15,1442.17,1074.38,1440.68,1072.97,1430.57z"/>
	<path class="st2" d="M1055.92,1425.97c-5.4-0.41-8.56-3.66-9.49-8.74c-0.58-3.17,2.29-3.31,4.55-3.21
		c5.99,0.26,8.41,5.18,10.21,9.48C1062.11,1425.67,1058.03,1425.42,1055.92,1425.97z"/>
	<path class="st0" d="M1216.89,1181.39c-0.84-3.67-1.79-7.34-0.28-11.87c1.02,9.3,7.25,8.94,13.71,8.77
		c9.11-0.24,18.23-0.04,27.34-0.08c3.32-0.01,6.75,0.1,8.71-3.42c2.17,5.7-2.37,4.38-4.92,4.42c-11.68,0.17-23.36,0.07-35.05,0.14
		C1223.12,1179.38,1219.65,1178.82,1216.89,1181.39z"/>
	<path class="st2" d="M960.72,1426.6c0.05,2.5-1.39,3.47-3.13,2.5c-3.45-1.91-9.52,1.18-10.51-5.07c-0.46-2.91,1.7-4.51,4.7-4.48
		C956.64,1419.61,959.18,1422.59,960.72,1426.6z"/>
	<path class="st2" d="M1047.65,1439.57c0.55-3.79,3.8-4.16,6.7-4.34c3.18-0.2,3.39,2.24,2.74,4.56c-0.81,2.88,0.07,7.53-4.78,7.05
		C1048.8,1446.49,1048.39,1442.73,1047.65,1439.57z"/>
	<path class="st2" d="M903.95,1411.26c2.89,0.2,5,2.71,5.1,6.32c0.09,3.12-2.69,3.87-5.32,3.88c-4.49,0.02-3.95-3.89-4.7-6.57
		C898.15,1411.72,900.36,1411.22,903.95,1411.26z"/>
	<path class="st2" d="M839.72,1404.03c-4.83,0.84-7.49-0.08-6.72-3.11c0.6-2.39,0.97-6.67,4.24-6.55c3.29,0.11,6,3.45,6.4,6.61
		C844.15,1405.08,840.11,1403.91,839.72,1404.03z"/>
	<path class="st2" d="M748.83,792.74c-2.12-5.94-1.51-11.69,1.16-17.28C751.59,781.31,751.12,787.06,748.83,792.74z"/>
	<path class="st2" d="M872.79,1437.35c-0.84,3.82-1.66,7.14-6.12,7.05c-2.38-0.05-3.54-1.2-3.14-3.7c0.63-4,4.01-5.27,7.02-6.24
		C872.86,1433.72,872.51,1436.32,872.79,1437.35z"/>
	<path class="st0" d="M833.7,1241.56c11.36,2.91,12.16-9.1,19.11-13.98c0.05,5.42-2.99,8.32-5.7,11.21c-2.6,2.78-0.83,3.62,1.48,4.5
		C843.63,1242.64,838.44,1243.98,833.7,1241.56z"/>
	<path class="st0" d="M880.76,1350.61c-16.26,1.05-32.52,1.02-48.77,0.05C848.26,1349.49,864.51,1349.32,880.76,1350.61z"/>
	<path class="st2" d="M922.05,1428.41c0.38,2.62,0.14,4.47-2.75,4.14c-2.81-0.32-3.54-2.27-3.44-4.77c0.09-2.39,0.79-5.12,3.31-4.97
		C922.59,1423.01,921.46,1426.61,922.05,1428.41z"/>
	<path class="st0" d="M651.71,1350.67c-14.53,1.05-29.07,0.75-43.59,0.09C622.65,1349.28,637.18,1349.53,651.71,1350.67z"/>
	<path class="st2" d="M742.34,1426.04c0.01,3.11-1.38,3.91-3.65,3.88c-3.17-0.05-6.41-0.58-6.92-4.17
		c-0.32-2.27,2.28-2.59,4.21-2.62C738.77,1423.08,741.42,1423.37,742.34,1426.04z"/>
	<path class="st2" d="M1086.95,1431.91c-2.09-4.55-3.64-7.92-5.25-11.41C1089.54,1421.35,1090.49,1423.09,1086.95,1431.91z"/>
	<path class="st2" d="M761.89,1417.57c-5.15,4.7-9.51,4.31-16.09,1.77C751.8,1416.96,756,1416.02,761.89,1417.57z"/>
	<path class="st2" d="M1070.44,1447.07c2.33,0.2,4.64,0.64,4.78,3.41c0.15,2.93-2.08,3.34-4.44,3.35c-1.92,0.01-4.05,0.27-4.03-2.55
		C1066.75,1448.88,1067.65,1447.05,1070.44,1447.07z"/>
	<path class="st2" d="M762.42,1437.39c-1.93-0.49-3.51-1.71-3.98-3.64c-0.39-1.61,1.17-2.34,2.52-2.75c2.06-0.62,3.2,0.42,3.46,2.36
		C764.65,1435.02,764.65,1436.74,762.42,1437.39z"/>
	<path class="st0" d="M387.38,1121.26c0.01,6.18,5.51,9.81,6.7,15.56c-4.5-2.89-6.9-7.22-8.1-12.4
		C386.02,1123.18,386.1,1121.95,387.38,1121.26z"/>
	<path class="st2" d="M951.75,1435.78c1.89,1.09,4.36,1.69,4.45,4.28c0.08,2.22-1.69,2.53-3.45,2.04c-2.15-0.6-4.34-1.47-4-4.28
		C948.94,1436.33,950.22,1435.69,951.75,1435.78z"/>
	<path class="st2" d="M1029.47,1425.32c-2.58-0.78-6,0.01-5.76-3.61c0.21-3.17,3.13-2.27,5.13-2.23c2.59,0.05,5.2,0.79,4.77,4.04
		C1033.26,1426.12,1030.89,1425.46,1029.47,1425.32z"/>
	<path class="st2" d="M1144.57,1426.56c-1.82-0.15-4.19,0.38-4.21-2.49c-0.02-3.19,2.72-2.93,4.75-3.2c2.1-0.27,4.05,0.49,3.82,2.98
		C1148.72,1426.25,1146.5,1426.38,1144.57,1426.56z"/>
	<path class="st0" d="M743.06,1237.97c-0.21,1.7-0.43,3.41-0.65,5.11c-4.36-1.45-9.38,1.97-13.39-1.83c5.27,1.4,9.73,0.1,13.36-3.97
		C742.63,1237.49,742.86,1237.72,743.06,1237.97z"/>
	<path class="st0" d="M932.51,1350.63c-8.98,0.99-17.97,1.04-26.94,0.03C914.56,1349.53,923.53,1349.43,932.51,1350.63z"/>
	<path class="st0" d="M820.33,1350.62c-4.96,0.91-9.93,0.96-14.88,0.04C810.41,1349.53,815.37,1349.47,820.33,1350.62z"/>
	<path class="st0" d="M1267,1169.96c-1.04-3.78,0.09-7.42,0.74-11.07C1268.12,1162.64,1268.25,1166.35,1267,1169.96z"/>
	<path class="st0" d="M722,1239.31c1.21-0.44,2.27-0.48,2.78,0.99C723.84,1239.97,722.92,1239.64,722,1239.31z"/>
	<path class="st0" d="M825.75,1239.36c1.16-0.4,2.08-0.18,2.64,0.98C827.5,1240.01,826.62,1239.69,825.75,1239.36z"/>
	<path class="st0" d="M604.01,1350.83c-0.45,0.4-0.91,0.79-1.36,1.19C602.53,1350.97,602.61,1350.15,604.01,1350.83z"/>
	<path class="st1" d="M1335.83,754.61c8.08-9.71,13.18-21.09,18.82-32.17c2.46-4.83,5.74-8.46,11.55-7.87
		c6.13,0.62,6.75,5.69,7.16,11c4.41-3.21,8.72-7.29,13.66-4.08c3.61,2.34,0.01,6.47-0.93,10.24c4.24-1.49,5.14-5.02,7.33-7.31
		c2.03-2.12,4.38-2.61,6.68-0.81c2.18,1.71,1.49,3.85,0.23,5.95c-3.82,6.34-9.21,11.09-15.27,15.13c-0.84,0.56-2.8,1.03-3.04,0.69
		c-6.18-8.77-8.07,1.74-12.02,2.67c-2.63,0.62-5.38,6.69-7.26-1.1c-1.02-4.23-4.5-1.41-6.71-0.26c-6.27,3.25-12.45,6.69-18.66,10.05
		C1336.85,756.03,1336.34,755.32,1335.83,754.61z"/>
	<path class="st1" d="M1256.28,857.96c-3.34,2.66-6.96,4.42-11.38,3.27c-5.7-1.5-7.91-5.78-3.96-9.79
		c12.64-12.84,23.43-27.03,33.42-43.73c3.12,7.73-0.29,13.17-1.54,18.69c-0.79,3.47-2.47,6.75-3.84,10.08
		c-0.69,1.67-2.74,3.6-0.26,4.9c2.01,1.05,3.5-1.14,4.71-2.59c2.08-2.5,3.99-5.15,6.75-7.37c-2.05,12.7-5.74,24.76-12.65,35.68
		c-1.49,2.36-3.95,3.22-6.54,2.03c-3.5-1.61-5.1-4.19-2.99-8.02c2.68-3.39,6.01-6.42,5.49-11.84
		C1261.09,852.16,1258.68,855.06,1256.28,857.96z"/>
	<path class="st1" d="M1322.88,725.92c2.54-2.52,2.68-6.03,3.6-9.16c1.25-4.23,2.39-8.45,8.1-7.31c5.72,1.14,6.53,5.27,5.45,10.23
		c-0.17,0.8-0.25,1.61-0.37,2.43c0.54,0.06,1.19,0.31,1.37,0.12c2.63-2.75,3.81-9.37,9.01-6.09c5.84,3.68-0.1,7.83-1.88,11.18
		c-4.02,7.58-8.21,15.22-14.71,21.06c-1.94,1.74-3.4,6.27-7.75,1.47c-2.6-2.87-4.61,2.53-7.24,3.48c-2.19,0.8-4.08,4.02-6.62,1.88
		c-2.95-2.48,0.67-4.56,1.61-6.23c4.18-7.38,7.98-14.84,9.57-23.25L1322.88,725.92z"/>
	<path class="st1" d="M1227.68,839.58c-9.42,1.87-11.44-0.59-9.85-11.96l-0.18,0.19c11.15-13.6,19.41-29.15,30.24-45.73
		c0.45,23.37-7.31,41.39-20.34,57.57L1227.68,839.58z"/>
	<path class="st1" d="M1277.11,701.88c-0.25,3.02-1.1,5.68-2.81,7.92c-7.47,9.79-16.49,17.88-27.16,24.07
		c-1.61,0.93-3.59,2.49-5.16,0.36c-1.25-1.69,0.59-2.99,1.62-4.18c7.35-8.51,11.27-18.98,16.33-28.77
		c3.01-5.82,7.32-7.01,13.11-5.32C1276.15,696.87,1277.8,698.67,1277.11,701.88z"/>
	<path class="st1" d="M1257.34,694.3c-0.38,7.69-5.76,12.93-9.38,19.03c-4.12,6.94-9.64,12.73-15.3,18.39
		c-1.13,1.13-2.65,2.41-4.34,1.26c-1.34-0.91-0.97-2.47-0.25-3.73c6.89-12.04,11.87-24.92,16.91-37.78
		c1.51-3.84,4.77-4.14,8.28-3.42C1256.68,688.76,1257.42,691.28,1257.34,694.3z"/>
	<path class="st1" d="M1263,739.53c6.31-11.31,12.62-22.62,18.93-33.93c3.26-5.85,8.26-6.69,13.31-3.28
		c5.56,3.76,1.54,7.93-1.04,11.29c-8.33,10.87-17.43,20.96-29.63,27.5C1264.05,740.58,1263.53,740.06,1263,739.53z"/>
	<path class="st1" d="M1196.02,831.7c-4.28,1.87-8.27,1.76-10.8-2.64c-2.15-3.73-1.63-7.64,1.58-10.61
		c9.46-8.76,18.77-17.64,27.27-29.84c1.72,10.61-4.88,16.48-6.84,23.73C1203.22,818.63,1200.93,825.92,1196.02,831.7z"/>
	<path class="st1" d="M1217.83,827.61c-4.83,1.98-3.71,7.52-6.43,10.76c-2.81,3.34-5.84,5.93-10.57,3.44
		c-4.51-2.38-4.1-5.64-1.76-9.29c3.89-5.49,9.18-10.14,10.35-17.26c4.23-5.5,8.47-11,13.71-17.81c0.68,11.89-5.32,20.59-5.48,30.35
		C1217.65,827.8,1217.83,827.61,1217.83,827.61z"/>
	<path class="st1" d="M1374.72,758.12c9.04-8.22,17.35-16.15,26.11-23.55c3.46-2.92,6.52-0.35,9.16,2.58
		c3.52,3.91,1.1,6.87-1.56,9.2c-8.69,7.61-19,12.03-30.26,14.34C1377.99,760.72,1377.73,760.38,1374.72,758.12z"/>
	<path class="st1" d="M1227.55,839.63c7.73-1.51,13.14-7.8,22.04-10.66c-4.47,10.95-10.87,18.98-19.02,25.33
		c-4.28,3.33-10.31,2.37-13.41-1.98c-3.32-4.66,1.56-7.09,4.93-9.46c1.78-1.25,3.16-3.13,5.58-3.29L1227.55,839.63z"/>
	<path class="st1" d="M1170.86,754.5c-0.68,13.81-9.06,23.46-17.94,32.71c-2.69,2.8-6.16,2.47-8.75-0.7
		c-2.12-2.59-3.26-5.72,0.07-7.99c9.99-6.81,16.85-16.81,25.73-24.72C1170.27,754.03,1170.57,754.26,1170.86,754.5z"/>
	<path class="st1" d="M1288.9,739.5c-3.03-0.72-3.01-3.05-1.9-4.45c6.58-8.26,9.96-18.37,15.86-27c3.32-4.86,7.56-5.66,11.99-2.05
		c5.13,4.19,0.63,6.5-2.02,9.76c-6.13,7.54-13.25,13.99-20.35,20.51C1291.27,737.38,1290.04,738.47,1288.9,739.5z"/>
	<path class="st1" d="M1193.62,786.94c-0.39,9.64-3.43,18.71-7.87,27.15c-2.35,4.47-7.04,5.37-11.27,1.7
		c-3.91-3.4-5.83-6.84-0.81-11.53c6.33-5.91,11.93-12.61,17.85-18.96C1192.21,785.84,1192.92,786.39,1193.62,786.94z"/>
	<path class="st1" d="M1216.27,715.37c5.08-10.24,10.15-20.48,15.25-30.71c1.21-2.43,3.38-2.59,5.69-2.1
		c2.32,0.49,2.79,2.59,3.23,4.38c0.71,2.85-0.16,5.7-1.99,7.77c-6.61,7.48-11.26,16.84-19.84,22.46
		C1217.83,716.58,1217.05,715.97,1216.27,715.37z"/>
	<path class="st1" d="M1323.03,725.75c-6.83,7.32-11.5,16.77-22.82,22.74c5.22-12.33,8.94-23.21,16.89-31.89
		c2.82-3.08,4.97-1.73,5.51,2.06c0.34,2.39,0.2,4.85,0.27,7.27C1322.88,725.92,1323.03,725.75,1323.03,725.75z"/>
	<path class="st1" d="M1289.25,846.6c0.9,11.15-2.51,20.71-7.29,29.9c-1.88,3.62-4.62,4.87-8.17,3.13
		c-4.28-2.09-2.98-5.46-1.05-8.41C1278.15,862.96,1283.73,854.8,1289.25,846.6z"/>
	<path class="st1" d="M1180.24,770.16c-3.03,10.87-8.97,20.06-14.48,29.44c-1.37,2.33-4.07,2.96-6.41,0.75
		c-2.79-2.64-3.28-5.47-0.67-8.72C1165.04,783.71,1171.96,776.35,1180.24,770.16z"/>
	<path class="st1" d="M1152.44,749.77c-2.71,10.94-9.39,16.09-15.13,21.73c-2.19,2.15-5.2,1.16-7.08-1.63
		c-1.92-2.86-1.34-5.36,1.39-7.12C1137.82,758.74,1144.15,754.92,1152.44,749.77z"/>
	<path class="st1" d="M1141.41,736.57c-0.98,9.08-5.04,14.39-10,19.18c-2,1.94-4.3,2.75-6.48,0.37c-2.3-2.51-1.86-5.18,0.62-7.21
		C1130.31,745.01,1135.26,741.33,1141.41,736.57z"/>
	<path class="st1" d="M1212.18,698.42c1.08-8.64,5.27-14.53,8.57-20.78c1.13-2.14,3.22-2.23,5.05-1.32c2.84,1.41,2.7,4.18,1.72,6.52
		C1224.74,689.44,1220.1,694.41,1212.18,698.42z"/>
	<path class="st1" d="M1131.92,727.83c0.81,0.66,1.84,1.09,1.87,1.57c0.25,4.32-3.43,6.71-5.2,10.05c-1.02,1.93-2.71,3.65-5.36,3.16
		c-2.14-0.4-2.62-2.21-2.27-3.83C1122.23,732.86,1128.3,731.78,1131.92,727.83z"/>
	<path class="st3" d="M1216.47,675.77c-1.49,4.86-4.64,8.57-9.67,10.27c-1.44,0.49-2.7-1.22-1.82-2.69
		c2.46-4.08,2.03-10.24,7.52-12.04C1214.84,670.55,1216.36,672.9,1216.47,675.77z"/>
	<path class="st2" d="M1209.41,815.26c-1.17,7.12-6.46,11.77-10.35,17.26c-1.02-0.27-2.04-0.54-3.05-0.81
		c4.91-5.79,7.21-13.08,11.22-19.37C1207.71,813.51,1207.87,814.91,1209.41,815.26z"/>
	<path class="st1" d="M1122.37,723.83c-0.87,3.42-0.62,7.3-4.64,8.23c-2.41,0.56-3.72-2.06-3.28-3.68c0.92-3.33,2.13-7.4,5.72-8.4
		C1123.08,719.17,1121.74,722.57,1122.37,723.83z"/>
	<path class="st3" d="M1206.96,668.61c-1.3,2.5-1.14,6.19-4.66,7.14c-1.67,0.45-2.4-1.09-1.99-2.66c0.69-2.65,1.11-5.62,4.08-6.8
		C1206.15,665.59,1206.75,666.97,1206.96,668.61z"/>
	<path class="st1" d="M1105.34,720.9c0.24-0.47,0.6-0.92,0.68-1.42c0.44-2.65,0.61-6.07,3.87-6.19c2.45-0.09,1.7,2.86,1.62,4.65
		c-0.23,5.15-3.72,3.02-6.35,2.78C1105.15,720.72,1105.34,720.9,1105.34,720.9z"/>
	<path class="st2" d="M1256.28,857.96c2.41-2.9,4.81-5.8,7.22-8.7c0.52,5.42-2.81,8.45-5.49,11.84
		C1257.43,860.05,1256.85,859.01,1256.28,857.96z"/>
	<path class="st3" d="M1263,742.06c-0.21-0.41-0.67-0.93-0.55-1.19c0.18-0.39,0.76-0.59,1.16-0.87c0.22,0.4,0.7,0.92,0.59,1.16
		C1264.02,741.55,1263.44,741.76,1263,742.06z"/>
	<path class="st3" d="M1169.98,753.8c0.27-0.81,0.9-1.48,1.59-0.87c0.59,0.53,0.39,1.42-0.71,1.56
		C1170.57,754.26,1170.27,754.03,1169.98,753.8z"/>
	<path class="st3" d="M1076.32,1372.11c0.74-0.11,1.48-0.23,2.21-0.35c-0.11,0.66-0.21,1.31-0.32,1.97
		C1077.58,1373.19,1076.95,1372.65,1076.32,1372.11z"/>
	<path class="st3" d="M1239.66,1088.64c-0.33-7.93,6.68-13,13.55-10.37c5.19,1.99,10.34,4.07,15.45,6.25
		c0.91,0.39,2.02,1.35,2.19,2.22c0.36,1.75-1.42,2.31-2.62,2.6c-8.06,1.91-16.1,4-24.26,5.33
		C1238.86,1095.51,1241.97,1089.71,1239.66,1088.64z"/>
	<path class="st3" d="M1182.39,1081.12c1.66,9.76,3.1,17.9,4.39,26.05c0.5,3.15-0.96,5.93-4.09,6.08c-3.21,0.15-2.24-3.26-2.51-5.2
		c-0.82-5.77-1.34-11.59-1.98-17.39C1177.85,1087.5,1178.44,1084.69,1182.39,1081.12z"/>
	<path class="st3" d="M646.17,1200.3c0-4.02-0.03-8.04,0.01-12.06c0.02-1.86-0.41-4.2,2.34-4.45c2.15-0.2,4.94-0.69,6.39,0.38
		c2.33,1.72-0.25,3.91-1.09,5.69c-1.73,3.67-3.81,7.19-5.74,10.76C647.44,1200.51,646.8,1200.41,646.17,1200.3z"/>
	<path class="st3" d="M1331.75,1200.67c0-4.1,0.01-8.19-0.01-12.29c-0.01-2.29-0.16-4.7,3.1-4.74c1.9-0.02,4.42-0.45,5.57,0.55
		c2.19,1.92-0.37,4.06-1.18,5.85c-1.68,3.74-3.91,7.24-5.92,10.83C1332.8,1200.81,1332.28,1200.74,1331.75,1200.67z"/>
	<path class="st0" d="M1372.99,1229.17c0.37-3.09,1.98-5.37,4.59-7l0.37,0.23c-0.71,2.9-1.91,5.47-4.73,6.94L1372.99,1229.17z"/>
	<path class="st0" d="M1377.58,1222.17c-0.01-1.76,0.26-3.38,1.93-4.41c0.49,0.01,0.94,0.15,1.36,0.42c-0.44,1.77-1,3.46-2.91,4.22
		L1377.58,1222.17z"/>
	<path class="st0" d="M1373.22,1229.34c-0.32,0.61-0.65,1.23-0.97,1.84c-0.17-0.17-0.51-0.47-0.49-0.5c0.38-0.52,0.81-1.01,1.24-1.5
		L1373.22,1229.34z"/>
	<path class="st3" d="M1380.86,1218.18c-0.41-0.26-0.87-0.4-1.36-0.42c0.08-1.48,0.19-2.95,1.75-3.73c0.45,0.32,0.89,0.65,1.31,1.01
		C1382,1216.09,1381.43,1217.13,1380.86,1218.18z"/>
	<path class="st0" d="M745.66,1232.01c0.23-1.74,0.88-3.2,2.8-3.55c0.27-0.05,0.91,0.61,0.97,1c0.25,1.9-0.61,3.12-2.52,3.53
		C746.48,1232.68,746.06,1232.35,745.66,1232.01z"/>
	<path class="st0" d="M746.9,1233c-0.02,2.63-1.83,3.88-3.84,4.97c-0.21-0.25-0.43-0.48-0.68-0.69c0.55-2.09,1.53-3.92,3.27-5.27
		C746.06,1232.35,746.48,1232.68,746.9,1233z"/>
	<path class="st3" d="M1046.06,1226.21c-0.1-0.17-0.2-0.35-0.3-0.52c0.12,0.06,0.24,0.13,0.37,0.18
		C1046.15,1225.85,1046.06,1226.21,1046.06,1226.21z"/>
	<path class="st3" d="M979.94,1156.56c0.28,3.29-6.5,7.2-9.15,5.25c-5.79-4.25-11.17-9.11-16.39-14.06
		c-2.13-2.02-0.88-4.96,0.59-6.91c2.11-2.79,3.92-0.1,5.53,1.06c5.63,4.05,11.17,8.22,16.72,12.38
		C978.3,1155.07,979.26,1155.99,979.94,1156.56z"/>
</g>
</svg>
